<?xml version="1.0" encoding="UTF-8" standalone="no"?>
<!-- Generator: Adobe Illustrator 17.0.0, SVG Export Plug-In . SVG Version: 6.00 Build 0)  -->

<svg
   xmlns:dc="http://purl.org/dc/elements/1.1/"
   xmlns:cc="http://creativecommons.org/ns#"
   xmlns:rdf="http://www.w3.org/1999/02/22-rdf-syntax-ns#"
   xmlns:svg="http://www.w3.org/2000/svg"
   xmlns="http://www.w3.org/2000/svg"
   xmlns:sodipodi="http://sodipodi.sourceforge.net/DTD/sodipodi-0.dtd"
   xmlns:inkscape="http://www.inkscape.org/namespaces/inkscape"
   version="1.1"
   id="Layer_1"
   x="0px"
   y="0px"
   width="400px"
   height="400px"
   viewBox="0 0 400 400"
   enable-background="new 0 0 400 400"
   xml:space="preserve"
   inkscape:version="0.48.4 r9939"
   sodipodi:docname="freesoftware.svg"><metadata
     id="metadata9"><rdf:RDF><cc:Work
         rdf:about=""><dc:format>image/svg+xml</dc:format><dc:type
           rdf:resource="http://purl.org/dc/dcmitype/StillImage" /><dc:title></dc:title></cc:Work></rdf:RDF></metadata><defs
     id="defs7" /><sodipodi:namedview
     pagecolor="#ffffff"
     bordercolor="#666666"
     borderopacity="1"
     objecttolerance="10"
     gridtolerance="10"
     guidetolerance="10"
     inkscape:pageopacity="0"
     inkscape:pageshadow="2"
     inkscape:window-width="1280"
     inkscape:window-height="751"
     id="namedview5"
     showgrid="false"
     inkscape:zoom="0.834386"
     inkscape:cx="-43.212257"
     inkscape:cy="184.38764"
     inkscape:window-x="0"
     inkscape:window-y="25"
     inkscape:window-maximized="1"
     inkscape:current-layer="Layer_1" /><g
     id="g2996"
     transform="matrix(2.5101376,0,0,2.5101376,73.224029,65.501625)"
     style="fill:#0db4c7;fill-opacity:1"><polygon
       transform="translate(2,4)"
       style="fill:#0db4c7;fill-opacity:1"
       id="polygon4"
       points="67.326,41.255 67.712,41.909 69.135,43.909 69.409,43.854 69.52,42.605 69.615,41.219 69.452,40.4 69.013,40.295 68.406,40.902 " /><path
       style="fill:#0db4c7;fill-opacity:1"
       inkscape:connector-curvature="0"
       id="path6"
       d="m 99.05,37.128 c -0.071,-0.2 -0.151,-0.395 -0.226,-0.594 -0.269,-0.717 -0.553,-1.431 -0.856,-2.142 -0.136,-0.32 -0.275,-0.636 -0.418,-0.952 -0.105,-0.233 -0.198,-0.468 -0.308,-0.7 -0.272,-0.58 -0.556,-1.152 -0.848,-1.717 -0.029,-0.057 -0.061,-0.111 -0.09,-0.167 -0.462,-0.885 -0.948,-1.749 -1.455,-2.594 -0.032,-0.054 -0.063,-0.109 -0.096,-0.163 -0.544,-0.9 -1.115,-1.775 -1.708,-2.629 -0.014,-0.02 -0.026,-0.04 -0.04,-0.059 -3.747,-5.387 -8.437,-9.861 -13.734,-13.303 -0.03,-0.02 -0.06,-0.039 -0.09,-0.058 -0.862,-0.558 -1.74,-1.089 -2.633,-1.592 C 76.474,10.416 76.399,10.376 76.324,10.335 75.451,9.849 74.565,9.387 73.666,8.955 73.578,8.911 73.488,8.872 73.4,8.83 72.491,8.4 71.572,7.993 70.639,7.618 70.581,7.595 70.523,7.575 70.465,7.552 69.515,7.175 68.555,6.825 67.584,6.507 67.548,6.495 67.513,6.482 67.477,6.47 66.47,6.142 65.453,5.849 64.426,5.586 64.392,5.577 64.36,5.565 64.325,5.557 c 0,0 -0.001,10e-4 -0.001,0.002 C 60.309,4.533 56.157,4 51.966,4 51.666,4 51.364,4.019 51.063,4.024 50.866,4.027 50.668,4.034 50.472,4.04 48.793,4.091 47.112,4.227 45.43,4.45 45.181,4.483 44.933,4.514 44.685,4.551 44.213,4.621 43.741,4.697 43.27,4.781 42.941,4.839 42.615,4.905 42.289,4.97 41.696,5.088 41.103,5.215 40.512,5.355 40.004,5.475 39.498,5.599 38.996,5.734 38.671,5.822 38.346,5.917 38.021,6.012 37.503,6.163 36.989,6.323 36.478,6.49 36.232,6.571 35.986,6.647 35.74,6.732 34.983,6.993 34.234,7.272 33.492,7.567 33.328,7.633 33.165,7.704 33,7.771 c -0.652,0.268 -1.297,0.55 -1.936,0.845 -0.108,0.049 -0.217,0.091 -0.325,0.142 -0.068,0.032 -0.133,0.068 -0.201,0.101 -0.69,0.329 -1.375,0.667 -2.049,1.027 -0.13,0.069 -0.255,0.144 -0.384,0.214 -0.517,0.281 -1.029,0.57 -1.536,0.87 -0.308,0.182 -0.611,0.369 -0.914,0.556 -0.302,0.188 -0.603,0.378 -0.9,0.572 -0.357,0.232 -0.713,0.464 -1.063,0.704 -0.167,0.115 -0.33,0.234 -0.496,0.351 -1.39,0.978 -2.719,2.019 -3.984,3.117 -0.087,0.076 -0.175,0.151 -0.261,0.227 -0.43,0.379 -0.854,0.763 -1.269,1.154 -0.051,0.048 -0.101,0.098 -0.152,0.146 -1.29,1.228 -2.505,2.517 -3.645,3.861 -0.094,0.111 -0.189,0.219 -0.282,0.331 -0.312,0.375 -0.615,0.754 -0.916,1.137 -0.153,0.195 -0.306,0.392 -0.456,0.59 -0.27,0.354 -0.536,0.709 -0.795,1.07 -0.18,0.25 -0.354,0.505 -0.53,0.759 -0.229,0.331 -0.46,0.66 -0.681,0.996 -0.37,0.562 -0.729,1.132 -1.077,1.712 C 9.001,28.498 8.864,28.748 8.722,28.996 8.493,29.393 8.265,29.79 8.046,30.195 7.9,30.466 7.76,30.738 7.619,31.011 7.416,31.403 7.217,31.798 7.023,32.197 6.891,32.471 6.76,32.745 6.633,33.022 6.441,33.439 6.255,33.86 6.073,34.283 5.964,34.542 5.852,34.8 5.745,35.06 c -0.04,0.097 -0.083,0.191 -0.123,0.288 0.006,-0.007 0.013,-0.015 0.02,-0.022 -1.566,3.89 -2.645,7.971 -3.2,12.145 0,0 -0.001,0 -0.002,0 -0.021,0.156 -0.029,0.312 -0.048,0.468 -0.092,0.744 -0.172,1.491 -0.231,2.24 -0.017,0.215 -0.023,0.429 -0.037,0.644 -0.046,0.708 -0.082,1.417 -0.098,2.129 -0.004,0.202 -10e-4,0.404 -0.003,0.606 -0.007,0.724 -0.001,1.448 0.023,2.174 0.006,0.184 0.017,0.367 0.025,0.551 0.033,0.742 0.082,1.483 0.149,2.227 0.015,0.166 0.032,0.331 0.049,0.497 0.075,0.751 0.168,1.501 0.278,2.251 0.023,0.159 0.047,0.319 0.072,0.479 0.116,0.74 0.25,1.479 0.4,2.217 0.035,0.17 0.068,0.34 0.104,0.509 0.151,0.705 0.321,1.409 0.504,2.111 0.052,0.2 0.101,0.4 0.156,0.599 0.176,0.644 0.371,1.284 0.574,1.924 0.08,0.253 0.156,0.508 0.241,0.76 0.188,0.56 0.394,1.115 0.603,1.672 0.12,0.319 0.234,0.641 0.36,0.957 0.191,0.479 0.4,0.954 0.607,1.43 0.163,0.375 0.319,0.752 0.491,1.122 0.034,0.074 0.063,0.15 0.098,0.225 0.306,0.651 0.627,1.29 0.958,1.921 0.069,0.133 0.143,0.264 0.213,0.396 0.366,0.685 0.745,1.357 1.138,2.019 0.045,0.075 0.088,0.152 0.133,0.228 0.47,0.78 0.959,1.543 1.465,2.29 10e-4,10e-4 10e-4,0.002 0.002,0.003 9.438,13.903 25.106,21.88 41.368,21.88 7.122,0 14.355,-1.528 21.227,-4.758 C 96.799,88.181 107.684,61.117 99.05,37.128 z M 72.41,97.432 C 65.959,100.463 59.104,102 52.034,102 37.303,102 23.504,95.149 14.506,83.919 c -0.128,-0.337 -0.256,-0.673 -0.384,-1.01 0.551,0.066 1.103,0.131 1.653,0.197 0.302,-0.093 0.604,-0.184 0.905,-0.276 0.105,-0.655 0.21,-1.312 0.315,-1.969 -0.079,-0.786 -0.157,-1.574 -0.236,-2.361 -0.145,-0.38 -0.289,-0.761 -0.434,-1.142 0.197,-0.131 0.395,-0.262 0.591,-0.394 0.092,-0.368 0.184,-0.735 0.275,-1.103 0.289,-0.196 0.578,-0.394 0.866,-0.59 0.04,-0.669 0.079,-1.339 0.118,-2.008 C 18.004,72.882 17.834,72.501 17.663,72.12 17.283,71.911 16.902,71.701 16.521,71.491 16.14,70.835 15.76,70.178 15.379,69.522 14.867,69.234 14.356,68.945 13.844,68.656 13.24,68.289 12.637,67.922 12.033,67.553 11.691,66.937 11.35,66.32 11.009,65.702 c -0.498,-0.629 -0.997,-1.26 -1.495,-1.889 0,-0.604 0,-1.207 0,-1.812 C 9.343,61.45 9.172,60.898 9.001,60.348 8.529,59.626 8.057,58.905 7.584,58.183 7.243,57.329 6.901,56.477 6.561,55.624 6.43,54.758 6.298,53.893 6.167,53.025 6.022,52.462 5.878,51.897 5.734,51.333 5.279,50.363 4.824,49.393 4.369,48.422 4.583,46.623 4.901,44.841 5.312,43.084 l 0.549,1.555 0.801,1.188 0.619,0.336 L 6.584,44.639 6.07,42.836 6.045,41.131 5.978,40.567 c 1.231,-4.218 3.031,-8.263 5.365,-12.006 0.386,-0.287 0.772,-0.573 1.158,-0.86 0.482,-0.447 0.965,-0.895 1.446,-1.343 0.715,-0.275 1.43,-0.551 2.145,-0.826 0.396,-0.164 0.792,-0.327 1.188,-0.491 0.043,0.275 0.086,0.552 0.129,0.827 0.396,0.008 0.792,0.017 1.188,0.025 0.568,-0.189 1.137,-0.379 1.705,-0.568 -0.525,-0.189 -1.051,-0.379 -1.575,-0.567 0.344,-0.311 0.688,-0.62 1.032,-0.931 0.276,-0.284 0.552,-0.568 0.827,-0.853 -0.121,-0.301 -0.241,-0.603 -0.361,-0.903 0.326,-0.035 0.654,-0.069 0.981,-0.104 0.37,0.345 0.74,0.688 1.11,1.033 0.387,-0.009 0.774,-0.018 1.162,-0.026 0.354,-0.017 0.706,-0.034 1.06,-0.051 0.258,-0.457 0.516,-0.913 0.774,-1.369 0.181,-0.646 0.361,-1.292 0.542,-1.938 0.844,-1.033 1.688,-2.066 2.532,-3.1 -0.595,0.155 -1.188,0.311 -1.782,0.465 0.438,-0.551 0.878,-1.102 1.316,-1.652 0.302,-0.482 0.603,-0.965 0.904,-1.447 -0.499,0.225 -0.999,0.448 -1.498,0.672 -0.723,0.551 -1.446,1.103 -2.169,1.653 -0.561,0.258 -1.12,0.517 -1.68,0.774 -0.783,0.311 -1.566,0.62 -2.351,0.931 0.732,-0.629 1.464,-1.258 2.195,-1.886 0.188,-0.302 0.374,-0.604 0.561,-0.905 1.887,-1.364 3.893,-2.605 6.016,-3.706 0.339,0.039 0.678,0.078 1.018,0.117 0.044,0.361 0.086,0.723 0.13,1.085 -0.275,0.473 -0.552,0.946 -0.827,1.42 -0.224,0.396 -0.447,0.792 -0.671,1.188 0.628,0.009 1.257,0.018 1.885,0.025 0.672,-0.353 1.343,-0.706 2.015,-1.059 0.775,-0.361 1.55,-0.724 2.325,-1.085 0.688,-0.302 1.377,-0.603 2.066,-0.904 -0.267,-0.155 -0.534,-0.31 -0.801,-0.465 -0.026,-0.267 -0.052,-0.533 -0.077,-0.801 0.292,-0.335 0.585,-0.671 0.878,-1.007 0.154,-0.336 0.31,-0.672 0.465,-1.008 0.232,0.207 0.465,0.413 0.697,0.62 0.111,-0.146 0.224,-0.293 0.336,-0.439 0.267,0.086 0.533,0.173 0.801,0.259 0.474,0.043 0.946,0.086 1.42,0.129 -0.318,0.422 -0.637,0.844 -0.955,1.266 -0.181,0.207 -0.361,0.413 -0.543,0.62 -0.361,0.431 -0.723,0.861 -1.085,1.291 -0.576,0.5 -1.153,0.999 -1.73,1.498 -0.378,0.121 -0.757,0.241 -1.136,0.362 -0.396,0.404 -0.792,0.809 -1.188,1.214 -0.396,0.206 -0.792,0.413 -1.188,0.62 -0.413,0.413 -0.826,0.826 -1.239,1.239 -0.198,0.327 -0.396,0.654 -0.595,0.981 0.104,0.104 0.207,0.207 0.311,0.311 -0.077,0.249 -0.155,0.499 -0.232,0.748 0.255,0.131 0.51,0.262 0.765,0.392 0.267,-0.224 0.534,-0.447 0.801,-0.671 0.37,-0.232 0.74,-0.465 1.11,-0.697 0.438,-0.268 0.879,-0.534 1.317,-0.801 0.465,-0.052 0.93,-0.104 1.395,-0.155 0.561,-0.189 1.119,-0.379 1.679,-0.568 0.284,-0.181 0.568,-0.361 0.854,-0.542 0.283,0.068 0.567,0.138 0.852,0.206 0.715,-0.111 1.43,-0.224 2.144,-0.336 0.284,-0.197 0.568,-0.396 0.853,-0.594 0.345,-0.353 0.689,-0.706 1.033,-1.059 0.499,-0.465 0.999,-0.93 1.498,-1.395 0.284,-0.311 0.568,-0.62 0.853,-0.931 0.379,-0.353 0.758,-0.706 1.137,-1.059 0.301,-0.12 0.603,-0.241 0.903,-0.361 C 48.979,10.7 48.789,10.331 48.6,9.96 c 0.387,0.198 0.774,0.396 1.162,0.595 0.697,0.111 1.395,0.224 2.092,0.335 0.672,-0.017 1.343,-0.034 2.015,-0.052 0.844,-0.146 1.688,-0.292 2.531,-0.438 0.215,-0.275 0.431,-0.551 0.646,-0.826 0.474,0.12 0.947,0.24 1.421,0.361 C 58.691,9.917 58.914,9.901 59.139,9.883 59.095,9.53 59.052,9.177 59.009,8.824 59.284,8.643 59.56,8.462 59.836,8.281 60.24,8.135 60.645,7.988 61.05,7.843 61.523,7.86 61.997,7.877 62.471,7.894 62.494,7.686 62.52,7.477 62.544,7.268 62.506,7.235 62.467,7.202 62.429,7.169 c 0.914,0.206 1.82,0.44 2.718,0.698 -0.035,0.146 -0.071,0.293 -0.106,0.44 -0.237,-0.14 -0.475,-0.279 -0.712,-0.419 -0.46,0.098 -0.921,0.195 -1.381,0.293 0.126,0.349 0.251,0.697 0.377,1.046 0.565,0.579 1.13,1.158 1.694,1.737 -0.021,0.48 -0.041,0.962 -0.063,1.443 0.397,0.313 0.795,0.628 1.192,0.941 -0.293,0.481 -0.586,0.962 -0.879,1.443 0.188,0.035 0.377,0.07 0.565,0.104 0.174,0.202 0.349,0.404 0.522,0.607 -0.502,0.146 -1.004,0.292 -1.506,0.438 -0.175,0.426 -0.349,0.852 -0.523,1.276 -0.174,0.133 -0.349,0.266 -0.522,0.398 -0.265,0.181 -0.53,0.362 -0.795,0.543 -0.21,-0.16 -0.419,-0.32 -0.628,-0.48 -0.168,-0.133 -0.335,-0.266 -0.503,-0.398 -0.292,-0.09 -0.585,-0.181 -0.878,-0.271 -0.439,-0.035 -0.879,-0.069 -1.318,-0.104 -0.23,-0.035 -0.46,-0.069 -0.69,-0.104 -0.133,-0.021 -0.265,-0.042 -0.397,-0.063 -0.153,-0.14 -0.307,-0.279 -0.46,-0.419 -0.266,0 -0.53,0 -0.795,0 -0.293,0.056 -0.586,0.111 -0.879,0.167 -0.32,0.084 -0.642,0.168 -0.962,0.252 -0.224,0.278 -0.446,0.558 -0.67,0.836 -0.14,0.314 -0.279,0.628 -0.418,0.941 -0.175,0.237 -0.35,0.475 -0.523,0.712 -0.272,0.286 -0.544,0.572 -0.816,0.857 -0.258,0.168 -0.516,0.335 -0.774,0.503 -0.279,0.327 -0.558,0.655 -0.837,0.982 -0.301,0.272 -0.6,0.544 -0.9,0.816 -0.048,0.265 -0.098,0.53 -0.146,0.795 0.021,0.209 0.041,0.418 0.063,0.628 0.056,0.202 0.111,0.404 0.167,0.606 0.098,0.167 0.195,0.335 0.293,0.502 0.146,0.077 0.293,0.153 0.439,0.23 0.251,-0.119 0.502,-0.237 0.753,-0.355 0.014,-0.175 0.028,-0.349 0.042,-0.523 0.335,-0.076 0.67,-0.153 1.004,-0.229 0.015,0.125 0.028,0.25 0.042,0.376 0.154,0.279 0.308,0.558 0.461,0.837 0.118,0.195 0.236,0.391 0.355,0.586 -0.021,0.118 -0.042,0.237 -0.063,0.355 0.014,0.175 0.027,0.349 0.041,0.523 0.244,0.035 0.488,0.069 0.732,0.104 0.146,-0.126 0.293,-0.251 0.439,-0.377 0.251,-0.174 0.502,-0.349 0.753,-0.523 -0.076,-0.223 -0.153,-0.446 -0.229,-0.669 -0.028,-0.224 -0.056,-0.446 -0.084,-0.67 0.369,-0.153 0.739,-0.307 1.109,-0.46 -0.133,-0.202 -0.266,-0.404 -0.398,-0.606 -0.251,-0.146 -0.502,-0.293 -0.753,-0.439 0.015,-0.446 0.028,-0.893 0.042,-1.339 0.3,-0.244 0.6,-0.488 0.899,-0.732 0.091,-0.271 0.182,-0.544 0.271,-0.816 0.133,-0.216 0.266,-0.432 0.398,-0.648 0.32,0.007 0.642,0.015 0.962,0.021 0.049,0.237 0.098,0.474 0.146,0.711 -0.271,0.216 -0.544,0.433 -0.816,0.648 -0.083,0.266 -0.167,0.53 -0.251,0.795 0.141,0.335 0.279,0.67 0.419,1.005 0.133,0.195 0.265,0.391 0.397,0.586 0.377,-0.021 0.754,-0.042 1.13,-0.063 0.188,-0.195 0.376,-0.391 0.564,-0.585 0.426,0.097 0.852,0.194 1.276,0.292 -0.007,0.105 -0.014,0.21 -0.021,0.314 -0.167,0.091 -0.335,0.181 -0.502,0.271 -0.349,0.126 -0.697,0.251 -1.047,0.377 -0.251,0.063 -0.502,0.126 -0.753,0.188 -0.125,0.223 -0.251,0.446 -0.376,0.669 0.09,0.104 0.181,0.209 0.271,0.313 -0.16,0.057 -0.32,0.112 -0.481,0.168 0.05,0.328 0.098,0.655 0.146,0.983 0.126,0.209 0.251,0.418 0.377,0.628 -0.293,0.195 -0.586,0.391 -0.879,0.586 -0.175,0.041 -0.349,0.083 -0.523,0.125 -0.11,-0.098 -0.223,-0.195 -0.334,-0.293 -0.084,0.056 -0.167,0.111 -0.251,0.168 -0.175,0.118 -0.349,0.236 -0.523,0.355 -0.188,0.09 -0.376,0.182 -0.564,0.271 -0.069,0.153 -0.14,0.307 -0.21,0.461 -0.16,-0.141 -0.32,-0.279 -0.48,-0.419 -0.104,-0.167 -0.209,-0.335 -0.314,-0.502 -0.125,0.125 -0.251,0.251 -0.376,0.377 -0.342,-0.028 -0.684,-0.057 -1.025,-0.084 -0.118,-0.188 -0.238,-0.377 -0.356,-0.565 0.069,-0.229 0.14,-0.46 0.209,-0.69 0.091,-0.202 0.182,-0.404 0.272,-0.606 -0.147,-0.216 -0.293,-0.433 -0.44,-0.648 -0.161,0.14 -0.321,0.279 -0.481,0.418 -0.167,0.188 -0.335,0.377 -0.502,0.565 0.104,0.355 0.209,0.711 0.313,1.067 0.014,0.243 0.028,0.487 0.042,0.732 -0.209,0.076 -0.419,0.153 -0.628,0.229 -0.265,0 -0.529,0 -0.794,0 -0.161,0.111 -0.321,0.224 -0.482,0.334 -0.14,0.23 -0.278,0.461 -0.418,0.691 -0.188,0.16 -0.377,0.32 -0.564,0.481 -0.328,0.118 -0.656,0.237 -0.983,0.355 -0.021,0.167 -0.043,0.334 -0.063,0.502 -0.244,0.139 -0.488,0.278 -0.731,0.418 -0.021,0.098 -0.042,0.196 -0.063,0.293 -0.355,-0.042 -0.711,-0.083 -1.066,-0.125 -0.042,0.16 -0.084,0.32 -0.126,0.48 -0.133,0.05 -0.265,0.099 -0.397,0.146 -0.266,-0.097 -0.53,-0.195 -0.795,-0.292 -0.23,0.118 -0.461,0.237 -0.69,0.355 0.104,0.118 0.209,0.237 0.313,0.355 0.356,0.132 0.712,0.265 1.067,0.397 0.049,0.216 0.098,0.432 0.146,0.648 0.126,0.125 0.251,0.252 0.377,0.377 -0.035,0.146 -0.07,0.292 -0.105,0.438 -0.063,0.412 -0.125,0.823 -0.188,1.235 -0.146,0.167 -0.293,0.335 -0.439,0.502 -0.37,0.014 -0.739,0.028 -1.109,0.042 -0.564,-0.112 -1.13,-0.224 -1.694,-0.336 -0.342,0.035 -0.684,0.07 -1.025,0.105 -0.195,0.251 -0.391,0.502 -0.586,0.754 -0.271,0.355 -0.544,0.711 -0.815,1.066 0.035,0.307 0.069,0.613 0.104,0.92 -0.077,0.272 -0.153,0.544 -0.23,0.816 0.091,0.292 0.182,0.586 0.272,0.879 0.16,0.16 0.32,0.32 0.48,0.48 0.3,0.077 0.601,0.153 0.899,0.23 0.008,0.251 0.015,0.502 0.021,0.754 0.126,0.076 0.251,0.152 0.377,0.229 0.258,-0.118 0.516,-0.236 0.773,-0.355 0.572,-0.007 1.144,-0.013 1.716,-0.02 0.133,-0.084 0.265,-0.168 0.397,-0.252 0.23,-0.16 0.46,-0.32 0.69,-0.48 0.133,-0.141 0.266,-0.279 0.397,-0.419 -0.098,-0.259 -0.194,-0.516 -0.292,-0.774 0.048,-0.258 0.098,-0.516 0.146,-0.773 0.251,-0.286 0.502,-0.572 0.754,-0.858 0.334,-0.111 0.669,-0.223 1.004,-0.335 0.174,-0.265 0.349,-0.53 0.522,-0.794 0.035,-0.182 0.07,-0.363 0.104,-0.544 0.286,-0.07 0.572,-0.14 0.858,-0.21 0.286,0.091 0.571,0.182 0.857,0.272 0.464,-0.176 0.927,-0.351 1.391,-0.525 0.339,-0.102 0.678,-0.202 1.017,-0.305 0.181,0.079 0.361,0.158 0.542,0.237 0.079,0.187 0.158,0.373 0.237,0.56 0.227,0.236 0.452,0.474 0.679,0.712 0.202,0.197 0.406,0.396 0.609,0.593 0.306,0.13 0.61,0.26 0.915,0.39 0.254,0.135 0.509,0.271 0.763,0.407 0.187,0.146 0.373,0.293 0.56,0.439 0.118,0.198 0.236,0.396 0.355,0.594 -0.017,0.175 -0.034,0.35 -0.051,0.525 -0.063,0.125 -0.124,0.249 -0.187,0.373 0.074,0.118 0.146,0.237 0.221,0.355 0.102,-0.102 0.203,-0.203 0.305,-0.305 0.118,-0.164 0.237,-0.327 0.356,-0.491 0.051,-0.108 0.102,-0.215 0.152,-0.323 -0.063,-0.106 -0.125,-0.214 -0.187,-0.321 -0.096,-0.096 -0.192,-0.192 -0.288,-0.288 0.057,-0.085 0.113,-0.169 0.169,-0.254 0.046,-0.067 0.091,-0.136 0.136,-0.204 0.158,0.103 0.316,0.204 0.475,0.306 0.068,0.096 0.136,0.192 0.203,0.288 0.091,-0.068 0.181,-0.136 0.271,-0.203 -0.164,-0.17 -0.327,-0.339 -0.491,-0.509 -0.203,-0.141 -0.407,-0.282 -0.61,-0.424 -0.203,-0.152 -0.407,-0.305 -0.61,-0.457 -0.106,0.006 -0.215,0.011 -0.321,0.017 -0.227,-0.068 -0.452,-0.135 -0.678,-0.203 -0.142,-0.181 -0.283,-0.361 -0.424,-0.543 -0.125,-0.237 -0.249,-0.474 -0.373,-0.711 -0.181,-0.085 -0.361,-0.17 -0.542,-0.255 -0.107,-0.191 -0.215,-0.384 -0.322,-0.575 0.033,-0.074 0.067,-0.147 0.102,-0.221 -0.057,-0.112 -0.113,-0.227 -0.169,-0.339 0.067,-0.085 0.135,-0.17 0.203,-0.255 0.192,-0.045 0.384,-0.09 0.575,-0.135 0.159,0.112 0.317,0.226 0.476,0.339 0.124,0.163 0.248,0.327 0.373,0.491 0.135,0.175 0.271,0.35 0.406,0.524 0.152,0.125 0.305,0.249 0.457,0.373 0.181,0.063 0.361,0.125 0.543,0.187 0.096,0.119 0.191,0.238 0.288,0.356 0.316,0.073 0.633,0.146 0.948,0.22 0.17,0.25 0.339,0.497 0.509,0.746 -0.057,0.204 -0.113,0.407 -0.17,0.609 0.153,0.159 0.306,0.317 0.458,0.476 0.231,0.175 0.463,0.351 0.694,0.525 0.306,0.045 0.61,0.09 0.915,0.135 0.108,0.198 0.215,0.396 0.322,0.594 0.413,0.181 0.825,0.361 1.237,0.542 0.073,-0.163 0.147,-0.327 0.221,-0.492 -0.255,-0.175 -0.509,-0.35 -0.763,-0.524 -0.102,-0.176 -0.204,-0.351 -0.306,-0.525 -0.067,-0.164 -0.135,-0.328 -0.203,-0.491 0.187,-0.215 0.373,-0.429 0.56,-0.644 0.266,-0.023 0.53,-0.046 0.796,-0.068 0.238,0 0.475,0 0.712,0 0.248,-0.102 0.497,-0.204 0.746,-0.305 0.108,-0.114 0.217,-0.227 0.325,-0.339 -0.227,-0.454 -0.454,-0.907 -0.681,-1.362 0.373,-0.161 0.745,-0.323 1.118,-0.485 0.485,-0.356 0.972,-0.713 1.458,-1.069 0.356,0.033 0.713,0.065 1.069,0.098 0.292,-0.227 0.583,-0.454 0.875,-0.681 0.437,0.032 0.874,0.064 1.312,0.098 0.453,0.211 0.907,0.421 1.361,0.631 0.34,0.211 0.681,0.422 1.021,0.633 0,0.291 0,0.582 0,0.875 -0.275,0.112 -0.551,0.227 -0.826,0.34 -0.373,0.08 -0.746,0.162 -1.118,0.243 -0.389,-0.146 -0.777,-0.292 -1.166,-0.438 -0.454,-0.033 -0.907,-0.065 -1.361,-0.097 -0.275,0.242 -0.551,0.485 -0.826,0.728 -0.323,0.098 -0.648,0.194 -0.972,0.293 -0.341,0.178 -0.681,0.355 -1.021,0.534 -0.389,0.178 -0.777,0.356 -1.166,0.534 0.032,0.324 0.064,0.648 0.097,0.972 0.341,0.325 0.681,0.648 1.021,0.973 0.356,0.422 0.713,0.842 1.069,1.264 0.308,-0.081 0.615,-0.162 0.924,-0.243 0.112,-0.194 0.227,-0.389 0.34,-0.584 0.211,0.163 0.421,0.325 0.632,0.487 0.438,-0.065 0.875,-0.131 1.312,-0.194 0.146,-0.195 0.292,-0.39 0.438,-0.584 0.454,0.032 0.907,0.065 1.361,0.098 -0.039,0.254 -0.077,0.508 -0.115,0.762 -0.015,0.67 -0.028,1.339 -0.042,2.009 0.056,0.46 0.111,0.92 0.167,1.38 0.146,0.035 0.293,0.07 0.439,0.105 0.111,0.418 0.224,0.837 0.335,1.256 -0.063,0.25 -0.126,0.502 -0.188,0.752 0.035,0.371 0.07,0.742 0.105,1.113 0.162,0.113 0.324,0.227 0.486,0.34 0.34,0.405 0.68,0.811 1.021,1.216 0.291,0.421 0.583,0.842 0.874,1.263 0.211,0.13 0.422,0.26 0.632,0.389 0.244,0.503 0.486,1.006 0.729,1.508 0.243,0.356 0.486,0.713 0.729,1.068 0.323,0.13 0.647,0.259 0.972,0.39 0.179,0.323 0.356,0.647 0.534,0.972 0.373,0.389 0.746,0.777 1.118,1.167 0.489,1.191 0.978,2.383 1.467,3.576 0.843,-0.616 1.685,-1.231 2.527,-1.848 0.681,-0.647 1.36,-1.296 2.041,-1.943 0.227,-0.228 0.453,-0.454 0.681,-0.681 0.032,-0.34 0.064,-0.68 0.097,-1.021 0.309,-0.291 0.615,-0.582 0.924,-0.874 0.211,-0.195 0.421,-0.39 0.632,-0.583 0.081,-0.389 0.162,-0.778 0.243,-1.167 0.194,-0.162 0.389,-0.324 0.583,-0.485 -0.113,-0.341 -0.227,-0.681 -0.341,-1.021 0.163,-0.405 0.324,-0.811 0.486,-1.216 0.065,-0.34 0.13,-0.681 0.194,-1.021 -0.34,-0.243 -0.681,-0.486 -1.021,-0.729 -0.259,0.049 -0.519,0.099 -0.777,0.146 -0.211,-0.146 -0.421,-0.292 -0.632,-0.438 -0.211,-0.485 -0.421,-0.973 -0.632,-1.458 -0.146,0.485 -0.292,0.973 -0.438,1.458 -0.162,0.308 -0.324,0.615 -0.486,0.924 -0.275,0.146 -0.551,0.291 -0.825,0.437 C 83.356,47.82 83.194,47.755 83.033,47.69 83.016,47.479 83,47.269 82.984,47.058 c -0.081,-0.275 -0.162,-0.55 -0.243,-0.826 -0.113,0.081 -0.227,0.163 -0.34,0.243 0,0.228 0,0.454 0,0.681 -0.146,-0.179 -0.292,-0.356 -0.438,-0.535 -0.227,-0.274 -0.454,-0.551 -0.681,-0.825 -0.405,-0.373 -0.81,-0.746 -1.215,-1.118 -0.064,-0.324 -0.13,-0.648 -0.194,-0.972 0.291,-0.163 0.583,-0.325 0.875,-0.487 0.356,0.356 0.713,0.713 1.069,1.069 0.146,0.211 0.291,0.422 0.437,0.633 0.195,-0.017 0.39,-0.033 0.583,-0.049 0.292,0.162 0.584,0.323 0.875,0.485 0.194,0 0.389,0 0.583,0 0.26,-0.323 0.519,-0.647 0.778,-0.972 0.161,-0.016 0.324,-0.032 0.486,-0.049 0.161,0.341 0.323,0.681 0.485,1.021 0.648,-0.194 1.296,-0.388 1.944,-0.582 0.453,-0.244 0.907,-0.487 1.36,-0.729 0.309,-0.194 0.616,-0.389 0.924,-0.583 0.033,-0.017 0.064,-0.033 0.098,-0.05 0.323,0.309 0.648,0.616 0.972,0.924 0.34,0.113 0.681,0.228 1.021,0.341 0.242,-0.195 0.485,-0.39 0.728,-0.584 0.324,0.341 0.648,0.682 0.973,1.021 0.389,0.907 0.777,1.814 1.166,2.721 0.356,0.665 0.713,1.329 1.069,1.993 0.405,0.713 0.81,1.426 1.215,2.139 0.227,0.696 0.454,1.393 0.681,2.09 0.098,-0.712 0.194,-1.425 0.292,-2.138 -0.033,-1.135 -0.064,-2.27 -0.098,-3.402 -0.243,-0.471 -0.486,-0.94 -0.729,-1.409 0.113,-0.778 0.227,-1.557 0.34,-2.333 -0.13,-0.957 -0.26,-1.913 -0.389,-2.868 -0.049,-0.534 -0.098,-1.069 -0.146,-1.604 0.089,-0.266 0.178,-0.532 0.266,-0.798 7.171,22.574 -3.319,47.586 -25.321,57.926 z" /><polygon
       transform="translate(2,4)"
       style="fill:#0db4c7;fill-opacity:1"
       id="polygon8"
       points="42.337,15.775 41.924,14.768 41.202,14.717 40.323,14.613 39.368,14.483 38.903,14.871 39.161,15.336 38.825,15.879 39.264,16.24 40.297,16.369 41.253,16.111 " /><polygon
       transform="translate(2,4)"
       style="fill:#0db4c7;fill-opacity:1"
       id="polygon10"
       points="40.273,25.246 40.543,25.364 41.476,25.127 42.069,24.957 42.493,24.381 42.712,23.737 43.018,23.382 42.611,22.618 41.9,22.5 41.493,23.195 41.052,23.364 40.967,23.975 40.696,24.179 40.645,24.482 40.34,24.721 " /><polygon
       transform="translate(2,4)"
       style="fill:#0db4c7;fill-opacity:1"
       id="polygon12"
       points="45.12,22.703 44.679,22.313 44.747,21.856 45.187,21.534 45.272,20.924 45.238,20.162 43.255,20.314 43.018,21.246 43.154,22.043 43.357,22.788 43.916,23.229 44.272,23.907 43.781,24.279 43.441,24.279 43.475,24.957 43.085,25.144 42.917,25.433 43.205,25.805 42.442,26.687 43.051,26.432 43.39,26.533 44,26.229 45.035,26.229 46.102,26.127 46.407,25.855 46.204,25.499 46.661,25.076 46.136,24.652 45.747,24.076 45.492,23.482 45.153,23.094 " /><polygon
       transform="translate(2,4)"
       style="fill:#0db4c7;fill-opacity:1"
       id="polygon14"
       points="77.013,83.729 78.408,83.108 79.156,81.921 80.371,79.777 81.3,77.969 82.256,76.187 82.153,73.682 81.455,74.947 81.223,74.947 80.913,75.516 80.112,76.497 79.183,77.271 78.305,77.762 78.149,78.33 77.813,78.744 77.969,79.648 77.788,80.346 77.297,80.836 76.755,81.585 76.342,82.18 76.574,82.567 76.315,83.187 " /><polygon
       transform="translate(2,4)"
       style="fill:#0db4c7;fill-opacity:1"
       id="polygon16"
       points="51.488,39.983 52.155,40.576 54.896,41.613 56.008,42.428 58.008,43.095 58.896,42.576 58.675,41.613 59.193,40.872 61.934,41.465 64.971,41.761 66.23,41.613 67.712,41.909 70.379,46.428 71.342,47.91 72.23,48.502 73.193,51.095 74.305,51.909 75.342,53.613 76.749,54.725 78.453,56.28 79.045,57.095 79.786,56.429 80.823,56.28 81.49,55.465 83.268,54.205 83.268,57.169 81.712,61.317 79.045,65.244 76.082,69.021 75.416,71.539 75.859,74.429 76.008,77.836 74.082,79.54 72.156,80.726 70.971,81.91 71.268,83.763 70.748,84.726 68.526,85.836 68.23,87.171 66.749,88.355 64.23,90.429 61.934,91.54 59.638,92.504 58.23,91.763 57.045,91.022 57.192,90.429 56.229,88.577 55.638,88.503 54.896,85.393 52.896,82.355 53.119,80.355 54.822,78.207 54.082,76.577 54.378,75.466 53.192,73.614 50.673,70.28 51.563,67.021 50.599,65.54 48.081,65.613 47.266,65.244 46.229,63.762 41.859,64.576 40.896,65.095 39.488,64.503 36.006,65.095 32.525,61.91 30.081,60.28 28.081,59.54 29.339,55.465 30.525,52.65 30.154,49.761 30.969,47.835 32.155,46.946 32.376,45.762 33.932,44.354 36.673,43.021 37.488,40.279 38.97,39.391 40.155,38.28 41.192,38.872 42.452,39.169 44.006,38.501 45.785,37.762 48.377,37.762 50.155,38.058 51.118,37.539 52.229,37.835 " /><polyline
       transform="translate(2,4)"
       style="fill:#0db4c7;fill-opacity:1"
       id="polyline18"
       points="54.969,36.578 54.078,36.906 53.344,37.016 53.25,37.406 54.297,37.781 54.844,37.969   55.234,37.539 55.051,37.125 " /><polyline
       transform="translate(2,4)"
       style="fill:#0db4c7;fill-opacity:1"
       id="polyline20"
       points="65.188,38.516 65.813,38.297 66.391,37.969 67.078,37.406 67.078,37.641 66.875,37.891   66.781,38.188 66.906,38.328 67.078,38.609 66.859,38.797 66.516,38.953 66.133,39.203 65.188,39.203 64.969,38.953 " /><polyline
       transform="translate(2,4)"
       style="fill:#0db4c7;fill-opacity:1"
       id="polyline22"
       points="49.895,34.017 49.706,34.308 49.8,34.599 50.1,34.839 50.1,34.616 50.186,34.205 " /></g></svg>