<?xml version="1.0" encoding="UTF-8" standalone="no"?>
<!-- Generator: Adobe Illustrator 17.0.0, SVG Export Plug-In . SVG Version: 6.00 Build 0)  -->

<svg
   xmlns:dc="http://purl.org/dc/elements/1.1/"
   xmlns:cc="http://creativecommons.org/ns#"
   xmlns:rdf="http://www.w3.org/1999/02/22-rdf-syntax-ns#"
   xmlns:svg="http://www.w3.org/2000/svg"
   xmlns="http://www.w3.org/2000/svg"
   xmlns:sodipodi="http://sodipodi.sourceforge.net/DTD/sodipodi-0.dtd"
   xmlns:inkscape="http://www.inkscape.org/namespaces/inkscape"
   version="1.1"
   id="Layer_1"
   x="0px"
   y="0px"
   width="400px"
   height="400px"
   viewBox="0 0 400 400"
   enable-background="new 0 0 400 400"
   xml:space="preserve"
   inkscape:version="0.48.4 r9939"
   sodipodi:docname="freesoftware.svg"><metadata
     id="metadata9"><rdf:RDF><cc:Work
         rdf:about=""><dc:format>image/svg+xml</dc:format><dc:type
           rdf:resource="http://purl.org/dc/dcmitype/StillImage" /></cc:Work></rdf:RDF></metadata><defs
     id="defs7" /><sodipodi:namedview
     pagecolor="#ffffff"
     bordercolor="#666666"
     borderopacity="1"
     objecttolerance="10"
     gridtolerance="10"
     guidetolerance="10"
     inkscape:pageopacity="0"
     inkscape:pageshadow="2"
     inkscape:window-width="1280"
     inkscape:window-height="751"
     id="namedview5"
     showgrid="false"
     inkscape:zoom="0.834386"
     inkscape:cx="163.52659"
     inkscape:cy="184.38764"
     inkscape:window-x="0"
     inkscape:window-y="25"
     inkscape:window-maximized="1"
     inkscape:current-layer="Layer_1" /><path
     fill="#00B3C3"
     d="M124.594,221.042c-1.774,0.118-4.103,0.904-5.644,3.7c-1.254,2.274-4.231,2.626-5.624,2.168  c-2.297-0.755-5.251-1.287-8.111,0.754c-2.849,2.03-5.922,0.489-5.39-3.221c0.542-3.699,1.87-7.005,5.443-9.046  c7.76-4.476,2.359-7.58,6.623-12.056c4.252-4.486,3.316-5.868,3.178-11.97c-14.426-2.168-22.611-6.347-31.753-17.753  c-9.132-11.407-12.672-20.794-13.629-35.114c-0.925-14.31-0.116-23.579,6.07-35.453c6.177-11.875,12.683-17.605,23.962-23.538  c11.29-5.943,22.346-7.356,32.562-7.186c10.206,0.17,17.02,0.924,22.792,4.22c5.773,3.284,11.046,7.442,14.416,7.473  c3.369,0.032,5.666-0.861,7.292-2.115c0.446,11.098-9.547,12.055-18.466,12.289c-8.952,0.244-14.437-3.455-22.655-2.074  c-8.228,1.383-21.708,5.124-28.257,16.531c-6.559,11.428-6.782,15.457-6.251,25.036c0.542,9.589,8.791,16.733,13.438,16.797  c4.667,0.074,5.698-1.265,9.77-3.923c4.071-2.646,24.865-28.395,31.977-34.178c7.101-5.784,14.096-7.569,21.654-7.665  c7.58-0.085,9.505,0.17,15.595,2.668c6.081,2.498,9.844,7.091,14.756,9.907c2.509-1.477,4.06-3.699,6.378-5.379  c8.25-6.028,12.534-7.643,22.336-6.708c5.624,0.564,12.735,3.795,16.967,7.462c7.548,6.56,13.777,15.681,18.816,22.633  c3.933,5.411,8.557,11.875,15.138,13.895c7.198,2.211,12.608-7.112,13.406-12.289c0.457-2.934,1.042-5.485,1.053-8.717  c0.01-3.232-0.319-7.134-1.244-10.492c-0.935-3.37-2.53-6.698-4.252-9.483c-2.817-4.519-7.399-9.228-12.173-11.662  c-2.679-1.361-8.972-3.848-12.97-3.912c-4.858-0.116-8.579,1.531-13.086,1.818c-5.443,0.372-15.192,1.595-19.455-2.615  c-2.731-2.669-3.061-4.455-3.518-7.963c1.191,0.999,2.882,1.648,4.37,1.775c3.412,0.287,6.612-2.498,9.354-4.114  c2.286-1.34,5.487-3.711,8.483-4.912c7.655-3.094,17.074-2.998,25.142-2.19c6.485,0.68,14.883,3.562,20.571,6.761  c5.709,3.243,11.215,8.686,15.265,13.82c5.06,6.453,7.825,12.003,9.674,20.061c2.338,10.29,2.998,25.749,0.17,35.901  c-2.243,7.994-9.663,20.284-15.999,26.3c-6.23,5.943-13.427,8.813-21.613,10.375c0.308,1.669,0.361,3.2,0.787,4.55  c0.606,1.924,1.743,4.06,4.114,3.391c0.936-0.277,1.446-0.5,2.69,0.574c1.233,1.095,0.596,5.305-2.902,7.187  c-1.765,0.946-3.647,1.158-6.485,1.222c-2.839,0.053-7.272,0.074-10.344-0.478c-3.083-0.532-4.932-2.988-8.345-3.37  c-5.284-0.595-9.302-4.39-13.544-7.123c-1.774-1.148-2.359-1.148-3.38-1.733c0.542,1.691,1.276,3.444,1.648,5.039  c0.371,1.626,0.201,3.125,0.404,4.422c0.201,1.298,0.542,2.297,0.754,3.37c0.861,0.755,1.127,1.892,2.541,2.264  c1.414,0.361,3.636-0.201,5.103-0.393c1.466-0.192,2.434-0.988,3.572-0.787c1.148,0.223,2.233,1.053,3.168,1.807  c0.957,0.766,1.775,0.883,2.572,2.786c0.776,1.914,1.478,5.826,1.584,8.43c0.107,2.605-0.181,4.975-0.957,7.06  c-0.786,2.062-1.455,2.997-3.561,5.038c-2.105,2.041-5.517,5.072-8.919,7.187c0.627,0.925,0.904,1.786,1.892,2.786  c0.988,1.02,3.019,2.136,3.922,3.199c0.914,1.064,1.372,1.84,1.372,3.03c0.022,1.18-0.042,2.732-0.999,4.04  c-2.413,3.232-5.273,3.817-8.749,5.347c0.585,3.636,1.064,6.251,0.212,9.887c-0.34,1.489-1.105,4.838-2.934,5.699  c-1.839,0.861-5.347,0.446-7.591,0.808c-2.243,0.361-3.487,0.68-5.219,1.031c-1.064,1.531-2.637,3.21-3.179,4.604  c-0.553,1.371-0.383,1.86,0.063,3.253c0.457,1.392,1.999,3.433,2.445,5.071c0.437,1.637,0.521,3.402,0.118,5.061  c-0.394,1.626-1.106,2.816-2.509,4.284c-1.392,1.467-4.146,2.605-5.528,3.795c-1.372,1.18-2.743,1.329-2.371,3.285  c0.511,2.69,4.455,7.058,7.293,8.08c1.691,0.627,3.987,0.446,6.049-0.435c-0.138,2.296-2.126,3.826-3.423,5.368  c3.529-0.999,6.941-2.934,9.291-5.485c-0.745,2.211-3.254,5.784-7.017,8.898s-3.742,2.487-5.624,3.732  c3.413,0.68,6.602,0.5,9.249,0.021c-1.435,0.798-3.837,1.925-6.984,2.264c-3.146,0.33-5.082,0.096-7.93-0.605  c-2.838-0.68-5.432-3.274-8.876-5.039c0.34,1.276,0.585,2.806,2.019,4.114c1.457,1.307,3.647,1.967,5.975,3.114  c-2.977-0.329-6.092-0.435-8.994-1.073c-2.148-0.489-3.604-0.978-5.166-1.765c-1.573-0.787-2.806-1.914-4.2-2.882  c0.671,1.276,0.872,2.786,2.02,3.838c1.138,1.042,2.976,1.435,4.486,2.158c-1.552-0.032-3.061,0.308-4.678-0.106  c-1.615-0.415-3.157-1.042-4.826-2.286c-1.68-1.233-3.413-2.764-4.858-4.327c-1.436-1.551-3.2-3.572-3.743-5.017  c-0.531-1.446,0.33-2.467,0.489-3.678c-0.989,0.66-2.2,1.01-2.976,1.956c-0.765,0.957-1.435,1.818-1.084,3.466  c0.319,1.647,1.86,3.667,2.923,5.495c-3.199-2.626-4.996-3.625-5.761-6.793c-0.724-2.976,1.136-5.666,2.54-7.909  c0.713-1.117,1.733-2.159,2.404-3.221c-1.457-1.425-3.105-2.658-4.359-4.253c-1.255-1.626-1.765-3.817-3.041-5.368  c-1.265-1.541-2.966-2.509-4.455-3.796c1.307,2.817,3.444,6.252,3.912,8.43c0.467,2.17-0.521,3.498-1.298,4.678  c-0.765,1.18-1.999,1.446-3.188,2.148c-1.18,0.712-3.009,0.16-3.711,1.222c-0.712,1.073-0.914,2.668-0.223,3.743l2.754,4.348  c-0.999-0.511-2.754-1.999-3.562-3.051c-0.787-1.064-1.999-2.041-2.158-3.455c-0.16-1.446-0.256-2.679,0.669-3.955  c0.935-1.265,3.465-1.69,4.603-2.668c1.128-0.978,1.765-1.615,1.701-2.88c-0.074-1.255-1.307-2.17-2.371-2.966  c-3.253-2.423-7.388-4.667-10.152-7.601c-1.563-1.659-2.318-2.998-2.626-4.146c-0.308-1.138,0.021-2.019,0.787-3.433  c0.765-1.393,3.423-3.285,3.742-4.805c0.33-1.521-0.999-1.86-2.222-2.393c-1.222-0.531-3.498,0.267-4.624-0.659  c-1.127-0.946,0.34-2.902-0.935-3.997c-1.276-1.073-4.168-0.468-5.645-1.626c-1.488-1.169-2.094-2.615-2.605-4.285  c-0.52-1.69-0.585-3.55-0.233-4.752c0.351-1.212,1.392-1.446,2.019-2.073c0.627-0.627,1.191-1.159,0.33-2.105  c-0.84-0.946-3.604,0.064-5.188-1.147c-1.573-1.222-0.616-4.115-1.743-5.348c-1.117-1.212-3.116-0.743-4.178-1.105  c-1.064-0.404-1.478,0.968-2.126-1.202c-0.66-2.168-0.66-8.674-1.541-11.098c-0.894-2.434-2.605-0.159-3.402-2.572  c-0.787-2.393-0.033-6.251-0.405-9.898l-1.626-9.908c-5.676,3.827-9.429,5.029-15.553,6.103  c-0.511,14.946-1.903,23.738,3.158,40.312c5.071,16.584,15.339,26.365,29.181,40.397c-18.274-13.692-26.992-24.811-32.455-39.078  c-5.465-14.266-4.412-26.184-3.859-39.919L124.594,221.042z M221.674,215.036c1.414,0.063,3.114,0.425,4.114,1.062  c0.979,0.649,2.02,1.159,2.935,2.084c2.222,2.264,3.902,5.018,4.645,8.175c0.479,2.01,0.542,4.582,0.713,6.953  c-0.68-2.179-1.138-4.455-2.094-6.411c-1.531-3.083-4.104-6.092-7.314-7.484c-1.053-0.446-1.754-0.372-2.349-0.277  c0.277,0.437,0.712,0.798,0.723,1.435c0.011,0.628-0.127,1.893-1.202,2.413c-1.754,0.861-3.71,0.256-5.049-0.946  c-1.351-1.18-1.829-3.232-1.127-4.997C216.53,214.972,219.772,214.961,221.674,215.036z M204.059,212.059  c0.181-3.583,1.467-6.601,4.688-8.377c1.659-0.904,4.22-2.073,6.591-2.371c2.253-0.255,7.761-0.063,11.067,1.446  c2.541,1.17,4.263,2.977,6.505,4.285c2.244,1.329,3.828,2.2,5.954,3.689c3.264,2.274,5.166,4.772,7.431,6.271  c1.084,0.723,2.616,0.627,4.051,1.064c-1.106,0.33-2.583,0.701-3.785,0.308c-1.509-0.489-3.625-1.871-4.794-2.86  c-2.084-1.744-3.146-2.605-5.401-3.902c-1.35-0.797-3.583-1.722-5.071-2.69c-1.488-0.957-4.04-3.093-5.486-3.806  c-1.796-0.914-5.06-1.403-7.08-1.361c-2.796,0.096-6.815,0.532-8.952,2.487c-2.137,1.946-2.945,3.647-2.466,6.166  c0.819-0.924,1.35-2.104,2.147-2.774c1.67-1.446,3.583-1.51,5.666-1.233c2.339,0.308,3.509,1.648,4.274,3.859  c-0.509-0.372-1.466-1.213-2.222-1.467c-1.754-0.606-3.094-0.415-4.752,0.468c-1.945,1.042-1.435,2.604-1.7,4.326  c-0.128,0.787-0.437,1.425-0.638,2.137c-0.745-0.191-1.425-0.489-1.978-1.052c0.022,0.818-0.096,1.509,0.064,2.423  c0.17,0.904,0.605,1.999,0.914,2.966c-1.361-1.34-2.743-2.626-3.625-4.391c-0.883-1.754-1.489-3.699-1.383-5.633L204.059,212.059z   M206.409,185.939c0.999-1.488,1.307-3.774,1.934-5.624c-0.255,2.349,0.212,4.932-0.935,6.645c-1.138,1.689-3.158,1.392-4.827,1.903  C203.878,187.864,205.41,187.417,206.409,185.939z M182.394,220.808c1.298-1.042,4.752-0.201,7.368-0.021  c-1.871,0.478-3.732,0.957-5.614,1.446c-0.17,0.627-0.085,1.372-0.509,1.903c-0.436,0.531-1.244,0.745-1.86,1.116  C181.841,223.572,181.107,221.861,182.394,220.808z M200.721,148.391c1.552,0.83,3.518,1.945,4.89,1.977  c1.361,0.042,1.733-0.893,2.53-1.424c1.266,4.136,2.732,8.685,4.88,12.427c0.893,1.573,1.488,0.839,2.158,2.434  c0.691,1.573,0.99,4.794,1.637,6.815c0.669,2.019,1.521,3.487,2.275,5.251c-1.925-2.69-4.379-6.144-5.443-8.409  c-1.053-2.253-0.382-2.445-1.244-4.592c-0.871-2.148-2.604-5.485-3.9-8.24c-0.925,0.118-2.094,0.309-2.797,0.075  c-0.712-0.223-0.574-0.979-1.201-1.467c-0.649-0.489-1.722-0.287-2.626-1.064c-0.905-0.765-1.106-2.37-1.17-3.784H200.721z   M192.355,168.802c1.466-0.127,3.273,0.266,4.645,0.192c1.361-0.085,2.339-0.437,3.509-0.66c-0.213-2.062,0-5.847-1.903-7.218  c-1.233-0.904-6.272-0.223-7.622,0.075c-3.04,0.648-6.581,2.456-9.505,3.583c2.806-1.956,5.242-3.785,8.622-4.795  c2.02-0.605,6.75-1.392,8.856-0.839c0.946,0.277,1.138,0.669,1.711,1.467c1.988,2.785,1.988,5.176,2.498,8.43  c0.51,0.797,1.053,1.318,1.467,2.115c0.415,0.819,0.638,2.115,0.754,3.168c-0.511-0.744-0.201-1.7-1.637-2.253  c-1.446-0.564-3.646-0.053-5.602,0.159c1.403,1.021,2.115,2.01,2.179,4.178c0.063,2.541-2.084,4.359-4.327,4.539  c-3.125,0.245-4.731-0.446-5.996-3.104c-0.531-1.159-0.148-2.573-0.191-3.711c-3.753,0.256-3.689,0.138-6.433,2.413  c1.489,2.179,2.435,3.444,4.88,4.731c1.372,0.734,2.945,1.446,4.645,1.733c1.722,0.308,4.508,0.585,6.315,0.308  c1.797-0.287,2.796-0.797,4.146-2.03c1.318-1.222,1.435-2.998,1.977-4.39c-0.127,1.35-0.287,3.05-0.787,4.018  c-1.52,2.976-4.145,3.837-7.26,3.848c-2.998,0.011-6.709-0.669-9.505-1.85c-2.222-0.925-5.932-3.529-6.815-5.804  c-0.595-1.552-0.127-3.466-0.191-5.209c3.093-2.052,3.848-1.541,7.527-2.148C189.846,169.504,190.888,168.93,192.355,168.802z   M174.347,154.876c0.085-1.244,0.223-1.191,0.329-1.807c-2.817-0.755-3.955,1.073-5.591,4.475c-0.617,1.276-0.011,2.02-0.66,2.86  c-0.659,0.85-1.722,0.712-2.817,1.531c-1.084,0.808-2.137,2.339-3.136,3.179c-2.073,1.701-4.858,2.743-7.25,3.881  c1.626-1.191,4.816-3.031,5.837-4.784c0.542-0.914,0.456-2.668,1.297-3.509c0.861-0.85,1.148-1.424,2.243-1.626  c1.106-0.223,0.66-1.488,1.01-2.487c0.361-1.02,1.074-1.733,1.818-2.732c0.745-1.009,1.68-2.519,3.158-3.072  c1.477-0.542,3.784,0.042,4.89-0.277c1.127-0.308,0.478-1.127,1.286-1.615c0.819-0.479,2.393-0.277,3.466-0.798  c1.925-0.913,2.86-2.477,4.008-4.114c0.159,3.562,0.127,6.112-1.148,9.472c-1.446,3.763-2.902,5.985-6.995,8.303  c-1.392,0.808-2.817,1.074-3.976,1.499c0.67-0.924,1.647-1.328,2.041-2.785c0.404-1.457,0.096-4.348,0.201-5.571L174.347,154.876z   M240.321,172.225c-1.934,0.128-2.403-0.138-3.955,0.968c0.83,1.307,1.691,2.615,2.52,3.933c-0.075-2.604,0.17-3.114,1.424-4.901  H240.321z M235.25,170.344c2.679-1.138,5.028-2.073,7.941-2.253c1.19-0.075,3.008,0.095,4.188,0.159  c1.01-1.488,2.297-2.647,2.764-4.359c0.319-1.127,0.16-6.347-0.382-7.696c-1.615-3.955-3.179-4.125-5.39-6.389  c-1.606-1.626-1.691-4.136-2.159-6.931c-0.181-1.021-0.669-2.329-0.914-3.392c-2.902-0.489-6.006-0.648-9.344-0.489  c1.617-1.552,3.179-2.956,3.647-5.294c0.457-2.329,0.085-5.177-1.233-7.272c-1.328-2.073-3.444-3.902-5.379-5.602  c-1.945-1.691-4.731-3.105-6.56-4.497c2.382-0.85,4.827-2.116,7.176-2.563c6.103-1.19,11.354,0.627,17.232,4.178  c3.435,2.073,6.252,4.04,9.834,7.782c3.583,3.742,8.004,10.619,11.471,14.692c3.454,4.06,6.262,7.292,9.28,9.706  c3.019,2.434,5.762,3.114,8.622,4.678l4.486,4.763l3.625-4.487l5.847,0.671l1.191-6.549l5.369-1.467l-0.872-8.855l3.848-2.721  l-2.88-5.496l2.923-6.007l-3.827-6.867l1.478-6.623l-4.433-3.774l-0.586-7.016l-6.208-2.371l-2.477-6.112l-6.964-0.086l-3.402-4.529  l-4.698,0.319l-5.231-0.563l-2.945-2.168l-4.305,2.827l-5.177-2.7l-10.311,3.911l6.719-5.857l6.974-1.117l5.347-1.361l7.208,2.371  l6.336-1.615l6.123,3.625l6.464-0.361l3.179,5.709l6.453,0.754l3.487,6.347l4.05,2.222l1.064,8.111l3.603,3.435l-1.573,7.112  l4.252,5.39l-3.987,5.762l4.263,3.614l-5.443,4.816l5.507,5.751l-6.665,2.148l4.348,6.177l-5.454,0.935l3.572,6.783l-6.133-0.085  l3.083,5.082l-6.73-0.809l1.595,7.294l-5.082-4.455l-1.744,8.845l-3.507-6.368l-1.903,7.952l-4.338-5.858l0.128,8.323l-4.795-7.484  c1.01,4.242,0.798,8.878,3.583,12.896c8.643-1.169,14.288-3.349,20.9-9.717c6.038-5.783,13.236-17.891,15.193-25.556  c2.232-8.749,2.296-24.844,0.106-33.742c-2.104-8.579-4.848-12.683-9.748-19.677c-4.698-4.976-9.302-10.238-15.245-13.778  c-8.717-5.209-19.911-6.623-29.841-6.474c-5.506,0.074-9.195,1.127-12.501,2.338c-5.762,2.085-10.355,6.656-16.212,8.898  c-1.914,0.745-3.444,0.765-4.932-0.042c1.467,2.945,3.072,4.274,6.739,5.337c2.647,0.775,8.994,0.297,13.353-0.118  c4.678-0.425,7.123-1.818,13.491-1.743c6.218,0.096,11.161,2.466,13.84,3.996c5.581,3.179,9.558,6.709,13.012,12.3  c1.914,3.062,3.243,6.527,4.189,10.058c0.936,3.529,1.35,7.505,1.414,10.971c0.064,3.455-0.202,6.538-1.042,9.653  c-1.977,7.292-6.347,14.703-15.319,13.554c-5.476-0.691-13.767-10.993-16.542-14.777c-5.581-7.622-11.332-16.074-18.359-22.421  c-4.284-3.88-10.152-6.559-15.914-7.08c-10.801-0.988-14.011,1.064-22.144,7.771c1.659,0.531,3.275,0.819,4.975,1.584  c3.753,1.701,7.209,3.891,10.206,6.697c3.136,2.945,4.55,4.827,4.668,9.036c0.074,2.806-2.233,5.039-4.338,7.06  c-1.286,1.232-2.998,2.37-4.04,3.338c-1.392,1.265-3.104,2.657-1.371,4.689c0.659,0.775,1.796,1.35,2.753,2.062  c1.531,1.116,0.83,5.316-1.169,6.431c-2.573,1.446-5.635,1.265-7.751-0.638c2.669-0.404,4.37-0.754,4.296-2.934  c-0.033-1.276-1.648-2.329-3.232-3.051c-3.817-1.743-6.697-1.477-10.503-4.199c-3.817-2.764-3.902-4.274-4.943-8.611  c-1.851,0.201-3.562,0.244-6.018,1.053c-2.466,0.828-5.22,2.785-7.462,3.253c-5.645,1.212-6.783,0.861-9.877,0.063  c-5.432-1.403-12.533,0.999-19.582,3.264c-1.169,0.372-5.91,0-9.089,1.128c-4.934,1.732-11.854,5.91-15.851,9.28  c-6.038,5.092-13.991,20.337-18.497,37.846c-0.457,5.305,1.053,8.908-2.297,11.502c-3.358,2.583-3.264,9.26-4.4,11.109  c-1.159,1.892-2.456,1.053-4.912,3.678c-2.445,2.626-3.678,2.179-3.636,7.134c2.115-1.372,5.198-2.998,7.877-3.094  c2.403-0.085,2.424,3.072,8.559-3.009c3.295-3.242,9.588-3.338,13.958-4.772c4.37-1.414,12.247-4.37,20.146-13.204  c7.909-8.824,11.683-18.115,13.213-31.553c0.245,2.382,0.66,5.071-0.361,11.641c-1.02,6.57-3.21,13.947,1.414,22.771l2.882,5.506  c-1.712-2.329-5.061-6.155-6.07-8.876l-2.339-6.283c-5.198,8.197-6.411,9.654-13.639,15.51c-0.287,3.647-0.361,7.442,0.839,10.919  c1.18,3.465-0.712,7.484,0.181,9.769c0.914,2.307,3.009,0.99,3.689,3.317c0.68,2.329-0.361,6.9,0.701,9.175  c1.053,2.253,3.658,0.882,4.912,1.606c1.265,0.733,1.669,1.732,2.339,2.7c0.68,0.957-0.256,3.221,1.116,3.966  c1.361,0.744,3.509,0.106,4.932,0.819c1.425,0.723,1.648,2.412,1.298,3.954c-0.352,1.51-1.871,2.212-2.531,3.763  c-0.68,1.552-0.605,2.626,0.213,4.062c0.808,1.414,2.572,2.211,4.348,2.923c1.786,0.702,4.263,0.309,6.102,1.309  c1.829,0.999,3.466,2.976,4.444,4.411c0.947,1.446,1.223,2.456,1.18,3.966c-0.042,1.51-0.669,3.264-1.477,4.698  c-0.808,1.467-2.583,3.243,0.192,6.049c2.785,2.786,2.679,1.573,4.274,3.391c-0.171-3.125-1.467-5.687-0.521-8.037  c0.925-2.349,3.785-2.764,5.273-3.837c1.51-1.053,2.36-2.509,3.529-3.763c0,1.615,0.159,3.37-0.022,4.571  c-0.371,2.478-1.105,4.678,2.583,5.092c1.67,0.159,3.254-0.904,4.997-1.552c-0.914,1.648-2.519,2.956-2.742,4.932  c-0.234,1.978,0.042,4.125,1.414,6.081c1.361,1.945,3.721,3.402,5.432,4.55c1.722,1.138,2.657,1.233,3.976,1.86  c0.064,1.925-0.319,3.976-0.096,5.793c0.234,1.829,0.798,3.435,1.84,4.943c1.073,1.499,2.742,2.371,4.348,3.487  c-0.883-2.041-2.647-3.965-2.626-6.091c0.021-2.137,0.669-3.647,2.742-5.55c2.084-1.882,6.964-3.54,9.26-5.369  c2.297-1.85,3.051-2.976,3.87-4.763c0.808-1.796,0.585-4.678,0.743-6.282c0.766,2.243,0.883,2.956,1.117,5.305  c0.223,2.36-1.392,5.666-2.073,7.41c2.86-1.372,4.656-3.562,5.57-5.719c0.595,0.371,0.286,1.371,0.52,3.264  c1.01-1.01,2.159-1.776,3.179-2.721c1.021-0.957,2.137-1.797,2.647-3.116c0.511-1.35,0.308-2.742-0.064-4.305  c-0.393-1.531-2.115-3.317-3.05-5.017c-0.925-1.68,0.17-3.328,0.117-5.369c-1.86-0.319-3.434-1.265-5.57-0.946  c-2.126,0.298-4.582,2.69-6.761,2.743c-2.19,0.021-3.424-2.02-5.209-2.594c-1.786-0.574-3.604-0.5-5.391-0.754  c2.275-2.17,11.12-3.221,17.169-4.211c5.327-0.861,10.599-1.371,15.999-1.435c2.403-0.032,5.518,0.765,7.165,0.276  c1.68-0.489,1.329-1.626,1.818-2.871c1.392-3.476,0.712-6.559-0.042-10.067c-4.837-0.563-9.876-1.254-14.756-0.882  c-4.783,0.371-10.439,2.626-15.339,2.785c-4.274,0.118-10.62-0.829-14.288-3.072c-4.486-2.732-7.974-8.611-9.206-10.493  c-2.01-3.061-4.539-9.089-6.071-11.853c-1.541-2.765-1.881-3.54-3.178-4.678c-1.276-1.159-3.02-1.233-4.55-1.86  c1.754,0.191,3.667-0.383,5.251,0.542c2.392,1.371,5.06,7.058,6.549,9.525c1.584-5.295,1.212-7.368,5.772-10.344  c-3.678,4.125-3.763,7.239-4.656,12.087c3.051,5.008,7.283,12.991,12.853,15.191c2.019,0.809,5.464,1.318,7.622,1.584  c6.761,0.84,13.267-1.317,19.901-2.945c4.848-1.19,9.77-0.701,15.649-0.371c1.999,0.116,6.73-1.074,7.707-3.126  c0.52-1.084,0.478-2.392-0.277-3.55c-0.765-1.169-2.786-1.733-3.88-2.775c-1.064-1.053-1.691-2.286-2.552-3.444  c-4.486,0.872-8.207,1.201-11.546,1.297c2.403-0.999,4.689-1.562,7.198-2.541c2.487-0.967,5.325-2.572,7.346-3.902  c1.999-1.307,3.284-2.094,4.752-3.646c1.456-1.541,3.328-3.136,4.401-5.028c1.084-1.893,1.233-4.008,1.307-6.357  c0.042-2.349-0.053-5.624-0.957-7.506c-0.882-1.881-2.626-2.466-4.04-2.902c-1.403-0.446-2.349,0.669-3.806,0.83  c-1.446,0.17-2.806,1.073-4.912,0.085c-2.115-0.988-4.603-2.998-6.718-5.985c-2.137-2.987-3.647-7.877-5.804-11.64  c-3.743-6.453-8.388-12.523-12.842-18.519c-0.372-1.478-0.914-3.519-1.106-5.528c-0.308-3.498-0.372-7.134,0.712-10.535  c0.829-2.615,2.041-5.379,4.773-6.453c1.106-0.425,2.487-0.605,3.466-0.234c0.999,0.352,1.956,1.457,1.552,2.743  c-0.405,1.392-1.383,1.446-2.041,2.148c-1.117,1.201-1.585,2.084-1.999,3.592c1.212-0.021,2.86-0.116,3.837,0.138  c1.297,0.352,2.509,1.213,3.157,3.062c-1.531-1.383-2.318-2.01-4.252-2.063c-0.882-0.021-1.967,0.309-2.945,0.446  c-0.35,1.18-0.574,2.647-1.084,3.573c-0.511,0.935-1.521,0.701-1.903,1.796c-0.393,1.064-0.393,2.817-0.202,4.242L235.25,170.344z   M248.783,168.728c0.595,0.244,0.829,0.286,1.563,0.85c0.745,0.574,1.796,1.147,2.402,2.508c0.585,1.372,0.564,3.488,0.435,4.349  c-0.52-0.16-1.232-0.053-1.774-0.521c-0.532-0.457-0.872-1.51-1.563-1.945c-0.68-0.468-1.265-0.372-2.041-0.468  c0.393,1.117,0.585,2.254,0.404,3.264c-0.404,2.222-1.691,3.35-3.817,3.615c-0.935,0.116-2.381-0.181-3.199-0.319  c0.372,0.828,0.999,1.551,1.392,2.392c1.786-0.266,3.114-0.234,4.071-0.68c0.957-0.435,1.978-1.446,3.221-1.882  c1.244-0.414,2.328-0.414,3.678-0.627c-1.062,0.925-1.754,1.84-2.806,2.743c0.765,2.264,1.552,4.539,2.318,6.815  c1.658,1.02,3.21,1.573,5.305,2.838c2.063,1.265,4.571,3.561,7.283,4.816c2.7,1.243,4.305,1.914,7.165,2.456  c2.838,0.542,5.071,2.827,7.877,3.199c2.775,0.372,7.995,0.457,10.132,0.234c2.445-0.234,5.602-1.488,5.878-4.156  c-2.041,0.509-5.156,0.042-6.741-3.796c-0.69-1.711-0.351-4.848-1.424-6.867c-1.073-2.01-2.563-2.658-4.337-5.166  c-1.786-2.489-4.71-6.411-6.348-9.739c-1.647-3.327-2.019-7.112-3.402-10.11c-1.381-2.965-3.476-5.39-5.102-7.696  c-3.529-5.028-6.389-8.473-12.193-11.004c-2.797-1.232-5.985-1.551-8.983-2.327c-1.223,0.553-2.891,1.158-3.19,2.572  c-0.308,1.414,0.277,3.529,1.307,4.613c1.733,1.776,4.285,3.721,5.305,6.549c0.649,1.839,0.84,7.952,0.277,9.61  c-0.585,1.733-1.945,2.753-3.061,3.912L248.783,168.728z M249.336,183.207c-0.542,0.457-0.946,0.936-1.818,1.329  c-0.861,0.404-2.062,0.489-3.21,0.776c1.617,2.53,3.328,5.06,4.869,7.707c1.541,2.637,2.891,5.539,4.379,8.323  c-0.063-1.605,0.022-3.295-0.212-4.772c-0.223-1.488-0.904-2.786-1.563-5.018c-0.659-2.222-1.488-5.262-2.434-8.355L249.336,183.207  z M205.803,127.842c-0.212,2.467,0.192,6.347,0.702,8.771c0.627,2.912,1.212,4.422,3.561,6.176c4.316,3.19,7.069,2.658,10.397,4.508  c1.573,0.883,3.572,2.371,4.156,3.923c0.595,1.551-0.382,3.273-1.584,3.954c2.094,0.298,4.455-2.051,3.466-4.486  c-0.49-1.19-2.775-1.722-3.487-2.934c-0.713-1.191-0.713-2.434-0.372-3.657c0.595-2.19,4.964-4.22,6.496-5.943  c2.37-2.69,3.284-4.934,1.934-8.378c-1.871-4.858-9.164-8.738-13.523-10.641c-1.999-0.872-3.125-0.935-4.678-1.414  c3.19,1.871,6.549,3.359,8.164,7.527c1.34,3.487,0.181,4.816,0.223,7.846c0.022,1.403,1.882,2.116,2.711,2.998  c0.702,0.765,0.649,1.35,0.075,2.413c-0.053-0.957-0.479-1.669-1.202-2.201c-1.232-0.861-2.541-0.68-3.199-2.445  c-0.988-2.7,0.978-5.251-1.223-8.281c-1.648-2.264-3.827-4.805-6.793-4.869c-1.393-0.032-2.456,0.192-3.944,0.617l-1.978-2.382  l-0.053-0.042c-4.04-3.699-6.814-6.739-12.501-9.27c-5.677-2.541-8.494-2.934-15-2.796c-6.507,0.138-12.96,0.702-20.518,7.208  c-7.537,6.507-26.97,31.404-31.69,34.55c-4.72,3.158-5.762,4.231-11.641,4.231c-5.889,0-15.096-8.334-15.457-18.742  c-0.34-10.407-0.511-14.117,6.739-26.662c7.251-12.544,20.359-16.392,30.096-17.71c9.737-1.287,15.564,2.137,22.782,2.137  c7.218,0.032,14.298-1.213,16.403-6.942c-1.02,0.616-2.403,1.297-6.272,1.105c-3.869-0.201-9.238-4.687-15.254-7.685  c-6.038-2.998-12.757-3.37-21.357-3.509c-8.622-0.159-19.349,0.489-30.012,6.24c-10.652,5.752-17.902,11.854-24.079,23.09  c-6.166,11.247-7.091,20.422-6.102,34.051c0.988,13.628,5.198,23.749,13.278,33.709c8.089,9.982,16.18,14.852,30.744,16.67  l3.072-13.543l-5.475,7.877l0.127-8.749l-4.954,6.155l-2.168-8.345l-4.007,6.687l-1.999-9.302l-5.826,4.709l1.85-7.696l-7.696,0.861  l3.529-5.348l-7.016,0.086l4.071-7.123l-6.208-0.99l4.954-6.495l-7.622-2.254l6.315-6.038l-6.241-5.091l4.88-3.785l-4.55-6.07  l4.858-5.666l-1.818-7.453l4.135-3.614l1.222-8.548l4.635-2.327l3.965-6.687l7.368-0.776l3.657-5.996l7.388,0.383l7.006-3.795  l7.261,1.68l8.217-2.489l6.113,1.447l7.951,1.158l7.686,6.145l-11.789-4.104l-5.932,2.838l-4.912-2.997l-3.37,2.296l-5.963,0.585  l-5.369-0.341l-3.901,4.773l-7.952,0.075l-2.849,6.442l-7.069,2.487l-0.68,7.367l-5.071,3.966l1.68,6.953l-4.39,7.217l3.369,6.304  l-3.295,5.762l4.39,2.871l-0.999,9.281l6.134,1.551l1.372,6.889l6.676-0.701l4.145,4.731l5.124-5.008  c9.334-4.646,13.193-7.261,20.465-15.138c8.292-8.962,13.034-17.254,24.068-23.388c7.932-4.401,14.384-5.985,23.282-4.453  c8.345,1.446,11.141,6.452,17.297,11.736c0.659-1.169,0.786-1.488,1.85-2.36c-0.319,1.531-0.85,3.114-1.01,4.593L205.803,127.842z"
     id="path3"
     style="fill:#0db4c7;fill-opacity:1" /></svg>