<?xml version="1.0" encoding="UTF-8" standalone="no"?>
<svg
   xmlns:dc="http://purl.org/dc/elements/1.1/"
   xmlns:cc="http://creativecommons.org/ns#"
   xmlns:rdf="http://www.w3.org/1999/02/22-rdf-syntax-ns#"
   xmlns:svg="http://www.w3.org/2000/svg"
   xmlns="http://www.w3.org/2000/svg"
   xmlns:sodipodi="http://sodipodi.sourceforge.net/DTD/sodipodi-0.dtd"
   xmlns:inkscape="http://www.inkscape.org/namespaces/inkscape"
   version="1.1"
   x="0px"
   y="0px"
   viewBox="0 0 150 150"
   enable-background="new 0 0 100 100"
   xml:space="preserve"
   id="svg2"
   inkscape:version="0.48.4 r9939"
   width="100%"
   height="100%"
   sodipodi:docname="network.svg"><metadata
     id="metadata14"><rdf:RDF><cc:Work
         rdf:about=""><dc:format>image/svg+xml</dc:format><dc:type
           rdf:resource="http://purl.org/dc/dcmitype/StillImage" /><dc:title /></cc:Work></rdf:RDF></metadata><defs
     id="defs12" /><sodipodi:namedview
     pagecolor="#ffffff"
     bordercolor="#666666"
     borderopacity="1"
     objecttolerance="10"
     gridtolerance="10"
     guidetolerance="10"
     inkscape:pageopacity="0"
     inkscape:pageshadow="2"
     inkscape:window-width="1280"
     inkscape:window-height="751"
     id="namedview10"
     showgrid="false"
     inkscape:zoom="1.01"
     inkscape:cx="-39.247881"
     inkscape:cy="62.5"
     inkscape:window-x="0"
     inkscape:window-y="25"
     inkscape:window-maximized="1"
     inkscape:current-layer="svg2" /><path
     d="m 142.38071,33.240235 c 3.20524,0 5.80339,-2.598138 5.80339,-5.803377 0,-3.205239 -2.59815,-5.803407 -5.80339,-5.803407 -2.74692,0 -5.03852,1.915927 -5.6381,4.481024 l -28.61123,5.803408 c -1.37797,-2.712367 -3.9641,-4.698904 -7.05213,-5.25643 l -0.45081,-12.609065 c 2.36824,-1.011308 4.03172,-3.358526 4.03172,-6.0994347 -0.002,-3.6620623 -2.97082,-6.6313665 -6.63438,-6.6313665 -3.66206,0 -6.632878,2.9693042 -6.632878,6.6328867 0,3.1345985 2.180404,5.7432835 5.103136,6.4360105 l 0.443297,12.404712 c -2.459906,0.607102 -4.55466,2.12633 -5.904073,4.186517 L 67.58126,16.797795 c 0.1097,-0.444786 0.184839,-0.904618 0.184839,-1.382476 0,-3.206728 -2.598153,-5.8033761 -5.803395,-5.8033761 -3.203737,0 -5.803392,2.5966481 -5.803392,5.8033761 0,3.20676 2.598153,5.803408 5.803392,5.803408 1.209668,0 2.332178,-0.372687 3.26084,-1.005322 l 24.31805,14.709863 c -0.07213,0.479346 -0.120217,0.96772 -0.120217,1.466612 0,1.447098 0.31857,2.817567 0.876071,4.055783 L 53.352277,77.303648 c -1.705553,-1.394482 -3.882954,-2.232989 -6.258707,-2.232989 -2.018113,0 -3.891969,0.607102 -5.456272,1.643943 L 24.105403,59.182705 c 0.925657,-1.314845 1.48015,-2.910701 1.48015,-4.6403 0,-4.464489 -3.618479,-8.082994 -8.082974,-8.082994 -4.464496,0 -8.0829756,3.618505 -8.0829756,8.082994 0,4.464489 3.6199826,8.082963 8.0829756,8.082963 1.221687,0 2.369743,-0.291623 3.408103,-0.778384 l 17.82943,17.830935 c -0.97074,1.531234 -1.540259,3.340471 -1.540259,5.28646 0,0.746832 0.09015,1.471141 0.246452,2.169887 L 12.18155,95.624476 C 11.141687,94.058651 9.3670093,93.026308 7.3473926,93.026308 4.1421529,93.026308 1.544,95.624476 1.544,98.829715 c 0,3.205235 2.5981529,5.800365 5.8033926,5.800365 2.9062044,0 5.2909754,-2.14131 5.7147344,-4.928817 l 26.143817,-8.784718 c 1.499686,1.983528 3.725174,3.37953 6.285757,3.797294 l -0.0047,14.854091 c -2.964812,0.65969 -5.184284,3.2984 -5.184284,6.46306 0,3.66359 2.969314,6.6314 6.632878,6.6314 3.663561,0 6.632877,-2.96933 6.632877,-6.6314 0,-2.70181 -1.619903,-5.01596 -3.937049,-6.0483 l 0.0062,-15.468705 c 2.852106,-0.75887 5.191798,-2.752945 6.417995,-5.379656 l 33.43788,6.733559 c -0.04958,0.351653 -0.10818,0.698776 -0.10818,1.062405 0,4.252627 3.448676,7.701307 7.701288,7.701307 0.562009,0 1.105984,-0.0676 1.633427,-0.1818 l 5.468297,13.50919 c -1.57783,1.25624 -2.61018,3.16615 -2.61018,5.34205 0,1.11202 0.29001,2.14886 0.76337,3.07603 L 91.244196,138.0124 c -0.04958,-0.0186 -0.09316,-0.0512 -0.145749,-0.0692 -3.014397,-1.08645 -6.339852,0.48087 -7.423291,3.49525 -1.083442,3.01441 0.48086,6.33835 3.495257,7.42331 3.017403,1.08493 6.339856,-0.48236 7.424796,-3.49677 0.559003,-1.55528 0.402722,-3.18721 -0.284021,-4.56066 l 10.941092,-11.47605 c 0.95121,0.50038 2.01661,0.80844 3.16317,0.80844 1.79571,0 3.41561,-0.70625 4.6373,-1.8393 l 20.57635,13.83227 c -0.20736,0.59506 -0.34262,1.22469 -0.34262,1.89489 0,3.20524 2.59816,5.8004 5.80039,5.8004 3.20524,0 5.80339,-2.59817 5.80339,-5.8004 0,-3.20673 -2.59815,-5.80337 -5.80339,-5.80337 -1.0038,0 -1.93696,0.27952 -2.76194,0.73029 l -21.21652,-14.26203 c 0.0932,-0.44932 0.14575,-0.91365 0.14575,-1.39151 0,-3.77927 -3.06248,-6.84025 -6.84025,-6.84025 -0.12022,0 -0.22992,0.0279 -0.34712,0.0329 l -5.6411,-14.03063 c 1.4516,-1.4005 2.36073,-3.357008 2.36073,-5.532914 0,-4.252597 -3.44868,-7.701279 -7.701296,-7.701279 -2.395289,0 -4.509576,1.11651 -5.920602,2.834072 L 56.979773,85.069363 c 0,-0.03599 0.0047,-0.07073 0.0047,-0.106721 0,-1.586829 -0.381683,-3.080493 -1.045872,-4.408895 L 92.755951,43.779929 c 1.746125,1.549259 4.039232,2.498955 6.55624,2.498955 2.034639,0 3.922029,-0.616098 5.493839,-1.667986 l 19.08868,19.088695 c -0.36966,0.826469 -0.58755,1.737107 -0.58755,2.700329 0,3.665071 2.97082,6.632886 6.63288,6.632886 3.66206,0 6.63137,-2.967815 6.63137,-6.632886 0,-3.663552 -2.96931,-6.632887 -6.63137,-6.632887 -1.18262,0 -2.27808,0.335117 -3.2368,0.877566 L 107.6927,41.632566 c 0.95421,-1.522238 1.51471,-3.316428 1.51471,-5.244393 0,-0.154808 -0.0164,-0.303411 -0.0239,-0.456823 l 28.13789,-5.705714 c 0.98877,1.789723 2.87164,3.014413 5.05956,3.014413 z"
     id="path4"
     inkscape:connector-curvature="0"
     style="fill:#0db4c7;fill-opacity:1" /></svg>