<svg xmlns="http://www.w3.org/2000/svg" xmlns:xlink="http://www.w3.org/1999/xlink" version="1.1" x="0px" y="0px" viewBox="0 0 100 125" style="enable-background:new 0 0 100 100;" xml:space="preserve"><g><path d="M71.8,33.8c7.4,0,13.5-6.1,13.5-13.5S79.2,6.8,71.8,6.8s-13.5,6.1-13.5,13.5c0,1.4,0.2,2.7,0.6,4L36.2,41.1   C34,39,31,37.8,27.8,37.8c-6.9,0-12.5,5.6-12.5,12.5s5.6,12.5,12.5,12.5c3.3,0,6.3-1.3,8.5-3.3l22.6,16.8c-0.4,1.3-0.6,2.6-0.6,4   c0,7.4,6.1,13.5,13.5,13.5s13.5-6.1,13.5-13.5s-6.1-13.5-13.5-13.5c-3.5,0-6.7,1.4-9.1,3.6l-22.8-17c0.3-1,0.4-2,0.4-3.1   c0-1.1-0.2-2.1-0.4-3.1l22.8-17C65,32.4,68.2,33.8,71.8,33.8z M71.8,13.8c3.6,0,6.5,2.9,6.5,6.5s-2.9,6.5-6.5,6.5s-6.5-2.9-6.5-6.5   S68.2,13.8,71.8,13.8z M71.8,73.8c3.6,0,6.5,2.9,6.5,6.5s-2.9,6.5-6.5,6.5s-6.5-2.9-6.5-6.5S68.2,73.8,71.8,73.8z"/></g><text x="0" y="115" fill="#000000" font-size="5px" font-weight="bold" font-family="'Helvetica Neue', Helvetica, Arial-Unicode, Arial, Sans-serif">Created by Viktor Vorobyev</text><text x="0" y="120" fill="#000000" font-size="5px" font-weight="bold" font-family="'Helvetica Neue', Helvetica, Arial-Unicode, Arial, Sans-serif">from the Noun Project</text></svg>