<?xml version="1.0" encoding="UTF-8" standalone="no"?>
<svg
   xmlns:dc="http://purl.org/dc/elements/1.1/"
   xmlns:cc="http://creativecommons.org/ns#"
   xmlns:rdf="http://www.w3.org/1999/02/22-rdf-syntax-ns#"
   xmlns:svg="http://www.w3.org/2000/svg"
   xmlns="http://www.w3.org/2000/svg"
   xmlns:sodipodi="http://sodipodi.sourceforge.net/DTD/sodipodi-0.dtd"
   xmlns:inkscape="http://www.inkscape.org/namespaces/inkscape"
   version="1.1"
   x="0px"
   y="0px"
   viewBox="0 0 150 150"
   xml:space="preserve"
   id="svg2"
   inkscape:version="0.48.4 r9939"
   width="100%"
   height="100%"
   sodipodi:docname="share.svg"><metadata
     id="metadata16"><rdf:RDF><cc:Work
         rdf:about=""><dc:format>image/svg+xml</dc:format><dc:type
           rdf:resource="http://purl.org/dc/dcmitype/StillImage" /><dc:title /></cc:Work></rdf:RDF></metadata><defs
     id="defs14" /><sodipodi:namedview
     pagecolor="#ffffff"
     bordercolor="#666666"
     borderopacity="1"
     objecttolerance="10"
     gridtolerance="10"
     guidetolerance="10"
     inkscape:pageopacity="0"
     inkscape:pageshadow="2"
     inkscape:window-width="1280"
     inkscape:window-height="751"
     id="namedview12"
     showgrid="false"
     inkscape:zoom="1.888"
     inkscape:cx="-40.307203"
     inkscape:cy="62.5"
     inkscape:window-x="0"
     inkscape:window-y="25"
     inkscape:window-maximized="1"
     inkscape:current-layer="svg2" /><g
     id="g4"
     transform="matrix(1.6453341,0,0,1.6453341,-9.8736119,-7.5323398)"
     style="fill:#96b4c7;fill-opacity:1"><path
       d="m 71.8,33.8 c 7.4,0 13.5,-6.1 13.5,-13.5 0,-7.4 -6.1,-13.5 -13.5,-13.5 -7.4,0 -13.5,6.1 -13.5,13.5 0,1.4 0.2,2.7 0.6,4 L 36.2,41.1 C 34,39 31,37.8 27.8,37.8 c -6.9,0 -12.5,5.6 -12.5,12.5 0,6.9 5.6,12.5 12.5,12.5 3.3,0 6.3,-1.3 8.5,-3.3 l 22.6,16.8 c -0.4,1.3 -0.6,2.6 -0.6,4 0,7.4 6.1,13.5 13.5,13.5 7.4,0 13.5,-6.1 13.5,-13.5 0,-7.4 -6.1,-13.5 -13.5,-13.5 -3.5,0 -6.7,1.4 -9.1,3.6 l -22.8,-17 c 0.3,-1 0.4,-2 0.4,-3.1 0,-1.1 -0.2,-2.1 -0.4,-3.1 l 22.8,-17 c 2.3,2.2 5.5,3.6 9.1,3.6 z m 0,-20 c 3.6,0 6.5,2.9 6.5,6.5 0,3.6 -2.9,6.5 -6.5,6.5 -3.6,0 -6.5,-2.9 -6.5,-6.5 0,-3.6 2.9,-6.5 6.5,-6.5 z m 0,60 c 3.6,0 6.5,2.9 6.5,6.5 0,3.6 -2.9,6.5 -6.5,6.5 -3.6,0 -6.5,-2.9 -6.5,-6.5 0,-3.6 2.9,-6.5 6.5,-6.5 z"
       id="path6"
       inkscape:connector-curvature="0"
       style="fill:#96b4c7;fill-opacity:1" /></g></svg>