<?xml version="1.0" encoding="UTF-8" standalone="no"?>
<!-- Generator: Adobe Illustrator 17.0.0, SVG Export Plug-In . SVG Version: 6.00 Build 0)  -->

<svg
   xmlns:dc="http://purl.org/dc/elements/1.1/"
   xmlns:cc="http://creativecommons.org/ns#"
   xmlns:rdf="http://www.w3.org/1999/02/22-rdf-syntax-ns#"
   xmlns:svg="http://www.w3.org/2000/svg"
   xmlns="http://www.w3.org/2000/svg"
   xmlns:sodipodi="http://sodipodi.sourceforge.net/DTD/sodipodi-0.dtd"
   xmlns:inkscape="http://www.inkscape.org/namespaces/inkscape"
   version="1.1"
   id="Layer_1"
   x="0px"
   y="0px"
   width="400px"
   height="400px"
   viewBox="0 0 400 400"
   enable-background="new 0 0 400 400"
   xml:space="preserve"
   inkscape:version="0.48.4 r9939"
   sodipodi:docname="control.svg"><metadata
     id="metadata17"><rdf:RDF><cc:Work
         rdf:about=""><dc:format>image/svg+xml</dc:format><dc:type
           rdf:resource="http://purl.org/dc/dcmitype/StillImage" /></cc:Work></rdf:RDF></metadata><defs
     id="defs15" /><sodipodi:namedview
     pagecolor="#ffffff"
     bordercolor="#666666"
     borderopacity="1"
     objecttolerance="10"
     gridtolerance="10"
     guidetolerance="10"
     inkscape:pageopacity="0"
     inkscape:pageshadow="2"
     inkscape:window-width="1280"
     inkscape:window-height="751"
     id="namedview13"
     showgrid="false"
     inkscape:zoom="0.59"
     inkscape:cx="-88.98305"
     inkscape:cy="200"
     inkscape:window-x="0"
     inkscape:window-y="25"
     inkscape:window-maximized="1"
     inkscape:current-layer="Layer_1" /><g
     id="g3"
     style="fill:#ffffff;fill-opacity:1"><g
       id="g5"
       style="fill:#ffffff;fill-opacity:1"><path
         fill="#00B3C3"
         d="M132.701,105.691V83.91c0-11.15-9.039-20.19-20.19-20.19s-20.19,9.039-20.19,20.19v21.782    C78.339,113,68.768,127.638,68.768,144.479s9.571,31.479,23.555,38.787V316.09c0,11.15,9.039,20.19,20.19,20.19    s20.19-9.039,20.19-20.19V183.266c13.983-7.308,23.555-21.947,23.555-38.787S146.684,113,132.701,105.691z M129.336,144.479    c0,9.292-7.533,16.825-16.825,16.825s-16.825-7.533-16.825-16.825s7.533-16.825,16.825-16.825S129.336,135.187,129.336,144.479z"
         id="path7"
         style="fill:#ffffff;fill-opacity:1" /><path
         fill="#00B3C3"
         d="M220.19,208.658V83.91c0-11.15-9.039-20.19-20.19-20.19s-20.19,9.039-20.19,20.19v124.749    c-13.983,7.308-23.555,21.947-23.555,38.787s9.572,31.479,23.555,38.787v29.857c0,11.15,9.039,20.19,20.19,20.19    s20.19-9.039,20.19-20.19v-29.857c13.983-7.308,23.555-21.947,23.555-38.787S234.173,215.967,220.19,208.658z M216.825,247.446    c0,9.292-7.533,16.825-16.825,16.825c-9.292,0-16.825-7.533-16.825-16.825c0-9.292,7.533-16.825,16.825-16.825    C209.292,230.621,216.825,238.154,216.825,247.446z"
         id="path9"
         style="fill:#ffffff;fill-opacity:1" /><path
         fill="#00B3C3"
         d="M307.678,133.284V83.91c0-11.15-9.039-20.19-20.19-20.19c-11.15,0-20.19,9.039-20.19,20.19v49.374    c-13.983,7.308-23.555,21.947-23.555,38.787s9.571,31.479,23.555,38.787V316.09c0,11.15,9.039,20.19,20.19,20.19    c11.15,0,20.19-9.039,20.19-20.19V210.858c13.983-7.308,23.555-21.947,23.555-38.787S321.661,140.592,307.678,133.284z     M304.313,172.071c0,9.292-7.533,16.825-16.825,16.825s-16.825-7.533-16.825-16.825c0-9.292,7.533-16.825,16.825-16.825    S304.313,162.779,304.313,172.071z"
         id="path11"
         style="fill:#ffffff;fill-opacity:1" /></g></g><path
     style="fill:#ffffff"
     d="m 103.01945,332.36764 c -9.661189,-5.25027 -9.968602,-7.7561 -9.968602,-81.25711 l 0,-67.19073 -9.025409,-8.82431 c -9.17876,-8.97424 -14.703405,-20.29077 -14.703405,-30.11804 0,-10.41348 5.641415,-22.40288 14.767275,-31.38409 l 8.961539,-8.8195 0,-11.254928 c 0,-18.774021 6.466729,-28.095203 19.491522,-28.095203 13.27345,0 19.47868,9.280525 19.51251,29.182849 0.0208,12.210602 0.0838,12.383232 5.89163,16.145112 7.09084,4.5929 15.6412,18.95736 17.1085,28.74202 1.794,11.96322 -3.41203,25.16823 -14.03587,35.60178 l -8.98524,8.82431 0,67.19073 c 0,58.67708 -0.3511,67.93062 -2.77093,73.03001 -4.65136,9.80204 -16.50661,13.51854 -26.24352,8.2271 l 0,0 z M 124.5619,156.80342 c 12.99043,-12.20387 -0.38026,-34.18725 -17.38079,-28.57657 -14.918193,4.92345 -15.846071,26.04263 -1.4184,32.28367 5.15112,2.22825 14.42871,0.39876 18.79919,-3.7071 l 0,0 z"
     id="path2986"
     inkscape:connector-curvature="0" /></svg>