<?xml version="1.0" encoding="utf-8"?>
<!-- Generator: Adobe Illustrator 17.0.0, SVG Export Plug-In . SVG Version: 6.00 Build 0)  -->
<!DOCTYPE svg PUBLIC "-//W3C//DTD SVG 1.1//EN" "http://www.w3.org/Graphics/SVG/1.1/DTD/svg11.dtd">
<svg version="1.1" id="Layer_1" xmlns="http://www.w3.org/2000/svg" xmlns:xlink="http://www.w3.org/1999/xlink" x="0px" y="0px"
	 width="1845.185px" height="400px" viewBox="0 0 1845.185 400" enable-background="new 0 0 1845.185 400" xml:space="preserve">
<g>
	<g>
		<path fill="#FFFFFF" d="M331.627,139.302c0,4.563-0.761,9.126-1.521,13.69c-1.521,6.845-1.521,12.929-1.521,19.774v84.419
			c0,9.887-3.042,19.774-9.126,28.9c-3.042,3.803-6.845,7.605-10.647,9.887c-4.563,3.042-9.126,4.563-14.45,4.563
			c-9.887,0-18.253-3.803-25.098-11.408c-3.803-3.042-6.845-6.845-9.887-10.647c-3.042-3.803-6.084-7.605-9.126-10.647
			c-5.324-7.605-14.45-19.774-28.9-36.505c-6.845-8.366-12.929-15.211-18.253-20.534c-6.084-5.324-9.887-8.366-12.929-9.126
			c0,14.45,0,29.661-0.761,44.111c0,5.324-0.761,10.647-0.761,16.732c0,4.563,0.761,9.126,2.282,13.69
			c1.521,4.563,2.282,9.126,2.282,14.45c0,3.042-0.761,6.084-3.042,9.126c-2.282,3.042-5.324,5.324-9.126,7.605
			c-7.605,4.563-14.45,6.845-20.534,6.845c-1.521-0.76-2.282-1.521-3.042-4.563c-1.521-4.563-3.042-9.887-3.803-15.211
			s-1.521-9.887-2.282-15.211c-2.282-16.732-3.803-33.463-6.084-50.195c-3.042-18.253-6.084-36.505-9.126-54.758
			c-0.761-5.324-2.282-10.647-3.042-15.971c-1.521-6.084-1.521-11.408-1.521-15.971c0-3.042,0.761-6.084,3.042-9.887
			c1.521-3.042,3.803-6.084,6.845-9.126c6.084-5.324,12.169-8.366,18.253-8.366c4.563,0,8.366,0.761,12.929,2.282
			c4.563,1.521,7.605,4.563,9.887,8.366c3.803,6.084,8.366,9.887,14.45,13.69c4.563,2.282,7.605,5.324,11.408,9.126
			c3.042,3.803,6.084,8.366,8.366,12.169c21.295,27.379,41.829,53.998,63.124,80.616c1.521-0.761,2.282-3.042,3.042-5.324
			c0.761-2.282,0.761-4.563,0.761-7.605c0-6.084,0-10.647,0-13.69v-60.842c0.761-22.816,11.408-34.224,33.463-34.224
			c3.803,0,7.605,2.282,9.887,6.845C330.106,131.697,331.627,135.5,331.627,139.302z"/>
		<path fill="#FFFFFF" d="M486.775,184.174c0,18.253-5.324,38.027-15.211,57.8c-9.887,19.774-22.816,34.984-38.787,44.871
			c-4.563,2.282-12.929,6.845-25.098,12.168c-5.324,2.282-10.647,4.563-15.211,6.084c-4.563,2.282-7.605,3.042-9.887,3.042
			s-3.042-0.76-3.803-3.042c-0.76-1.521-1.521-3.042-2.282-4.563c-1.521-5.324-2.282-11.408-2.282-16.732
			c-0.76-6.084-1.521-11.408-2.282-16.732c-2.282-19.774-4.563-39.548-6.084-59.321c-1.521-19.013-3.803-37.266-4.563-56.279
			c-1.521-12.929-2.282-26.619-2.282-39.548c0-3.803,0.76-6.845,1.521-8.366c1.521-1.521,3.042-3.042,6.084-4.563
			c9.887-4.563,20.534-6.845,31.182-6.845c18.253,0,34.224,6.084,48.674,17.492c13.69,11.408,24.337,25.098,31.182,41.829
			C483.733,160.597,486.775,172.005,486.775,184.174z M444.946,187.976c-0.76-24.337-12.168-41.069-34.984-49.435
			c-2.282-0.761-4.563-1.521-7.605-2.282c-2.282,0-3.803,1.521-3.803,3.803c0,1.521,0,3.042,0.76,3.803
			c3.042,19.013,5.324,38.027,5.324,57.04c0.76,10.647,0.76,20.534,0.76,30.421c0,5.324-0.76,11.408-0.76,16.732
			c0,0.761,0,2.282,0,3.803c0,1.521,0.76,3.042,2.282,3.803c10.647-8.366,19.013-18.253,26.619-30.421
			C441.143,213.835,444.946,201.666,444.946,187.976z"/>
		<path fill="#FFFFFF" d="M699.724,114.965c-3.042-1.521-6.084-2.282-10.647-3.042c-9.126-0.761-16.732-1.521-21.295-1.521
			c-9.126,0-19.013,1.521-28.9,4.563c-9.887,3.042-19.774,5.324-29.661,6.845c-1.521,0-3.042,0.761-3.803,0.761
			c-1.521,0-2.282,0.761-3.042,2.282c-1.521,1.521-2.282,3.803-2.282,8.366c0,2.282,0,5.324,0,8.366
			c-0.76,32.703-2.282,65.406-5.324,97.348c-0.76,12.169-1.521,24.337-1.521,35.745c0,4.563,0.76,9.126,1.521,14.45
			c1.521,4.563,3.042,9.126,6.845,12.929c5.324,4.563,12.929,9.126,23.576,13.69c5.324,2.282,9.887,3.803,15.211,5.324
			c4.563,1.521,8.366,2.282,11.408,2.282c9.887,0,17.492-3.803,22.816-9.887s8.366-14.45,8.366-24.337c0-3.042,0-5.324,0-6.845
			c-0.76-1.521-2.282-1.521-5.324-1.521c-14.45,0-25.858-3.042-34.224-9.126c-9.126-6.084-12.929-16.732-12.929-32.703
			c0-5.324,0-9.887,0.76-15.211h26.619c3.803,0,8.366-1.521,13.69-3.803c2.282-1.521,4.563-3.042,6.084-4.563
			c2.282-2.282,2.282-5.324,3.803-8.366c1.521-3.042,1.521-4.563-0.76-6.845c-1.521-2.282-3.803-2.282-6.084-2.282
			c-5.324,0-10.647,0-15.211,0c-8.366,0-17.492,0-25.858,0.761c0.76-19.013,0.76-38.027,0.76-57.04
			c2.282-0.761,4.563-0.761,6.845-0.761c6.084,0,11.408,0.761,17.492,1.521c6.084,1.521,11.408,1.521,17.492,1.521
			c1.521,0,3.042,0,5.324,0c2.282-0.761,3.803-0.761,4.563-1.521l19.774-15.211c0.76-1.521,1.521-3.042,1.521-4.563
			C703.527,118.768,702.005,116.487,699.724,114.965z"/>
		<path fill="#FFFFFF" d="M1104.326,210.792c0,10.647-0.76,21.295-2.282,33.463s-5.324,22.816-9.887,33.463
			c-4.563,10.647-10.647,19.013-19.013,25.098c-8.366,6.845-19.013,10.647-32.703,10.647c-28.14,0-47.913-8.366-57.8-25.098
			c-9.887-15.971-15.211-37.266-14.45-63.885c0-19.013,2.282-38.027,8.366-56.279c6.084-18.253,17.492-32.703,34.224-42.59
			c9.887-6.084,19.774-8.366,31.182-8.366c10.647,0,19.774,3.042,28.14,9.887c7.605,6.084,13.69,14.45,19.013,24.337
			C1099.763,171.245,1104.326,191.779,1104.326,210.792z M1057.934,235.129c0-7.605-1.521-15.211-3.042-22.816
			c-0.76-5.324-3.803-15.211-7.605-30.421c-1.521-6.845-3.803-12.169-6.084-17.492c-2.282-4.563-4.563-6.845-6.084-6.845
			c-5.324,0-9.126,2.282-12.168,5.324c-3.042,3.803-5.324,7.605-6.084,13.69c-2.282,12.169-3.042,22.055-3.042,30.421
			c0,5.324,0.76,11.408,1.521,18.253c0.761,7.605,2.282,15.211,4.563,22.055c2.282,6.845,5.324,13.69,9.887,18.253
			c4.563,5.324,10.647,8.366,17.492,8.366c2.282,0,4.563-1.521,6.084-5.324c1.521-3.803,2.282-7.605,3.803-12.168
			C1057.934,246.537,1057.934,239.693,1057.934,235.129z"/>
		<path fill="#FFFFFF" d="M1130.945,172.005c0-6.845,2.282-13.69,7.605-20.534c4.563-7.605,9.126-13.69,13.69-19.013
			c3.803-4.563,9.126-11.408,16.732-19.774c3.803-3.803,6.845-6.845,10.647-9.126c7.605-5.324,21.295-5.324,25.098,4.563
			c1.521,3.042,3.042,5.324,3.042,6.845c0,3.042-2.282,6.845-6.084,10.647c-3.803,3.803-7.605,8.366-12.168,12.929
			c-5.324,4.563-9.126,9.887-12.929,15.211c-3.042,4.563-5.324,9.887-5.324,15.211c0,4.563,2.282,9.887,6.845,16.732
			c4.563,6.084,10.647,12.169,16.732,19.774c6.084,7.605,11.408,15.211,15.971,23.576c5.324,8.366,7.605,17.492,7.605,26.619
			c0,15.971-6.084,32.703-17.492,49.435c-5.324,8.366-11.408,15.211-19.013,19.774c-6.845,5.324-14.45,7.605-22.055,7.605
			c-1.521,0-3.803-0.76-5.324-3.042c-1.521-1.521-3.803-3.803-5.324-6.845c-3.042-6.084-5.324-10.647-5.324-14.45
			c0-1.521,0.76-3.042,1.521-4.563c1.521-2.282,3.042-3.803,4.563-3.803c2.282,0,4.563-1.521,6.845-3.803
			c2.282-3.042,4.563-6.084,6.845-10.647c4.563-9.126,7.605-15.971,9.126-19.774c1.521-6.084,3.042-12.169,3.042-18.253
			c0-7.605-2.282-15.211-6.845-21.295c-4.563-6.084-9.126-12.169-15.211-18.253c-6.084-5.324-10.647-11.408-15.211-16.732
			C1133.227,185.695,1130.945,178.85,1130.945,172.005z"/>
		<path fill="#FFFFFF" d="M1389.526,132.458c0,6.845-1.521,12.169-4.563,15.971c-3.042,3.803-6.845,6.845-12.168,7.605
			c-5.324,1.521-10.647,2.282-16.732,2.282c-6.084,0.761-11.408,0.761-16.732,0.761c-4.563,0-9.887,0-14.45,0
			c-0.76,7.605-1.521,14.45-3.042,22.055c-1.521,7.605-2.282,15.211-3.042,22.816l-1.521,63.885c0,4.563,0,9.887,0,15.971
			s-0.76,12.929-2.282,18.253c-1.521,6.084-3.803,10.647-6.845,14.45c-3.042,3.803-8.366,6.084-15.211,6.845
			c-1.521,0.76-3.042,0.76-4.563,0.76c-2.282,0-3.803-1.521-4.563-4.563c-0.76-2.282-1.521-4.563-1.521-6.084
			c0-11.408,0.76-22.816,2.282-34.224c2.282-27.379,3.803-54.758,3.803-81.377c0-14.45-1.521-28.9-3.803-43.35
			c-3.803-0.761-9.126-2.282-15.211-3.803c-6.084-1.521-12.929-3.042-19.013-5.324c-6.084-2.282-11.408-6.084-15.971-9.887
			c-4.563-3.803-6.845-8.366-6.845-12.929c0-2.282,0.76-5.324,3.042-6.845c1.521-2.282,3.803-3.042,6.084-3.042h12.929
			c0.76-0.761,2.282-1.521,4.563-2.282c2.281-0.76,4.563-0.761,6.845-0.761c5.324,0,9.126,0,11.408,0
			c16.732,0,33.463,1.521,50.955,3.042c9.887,0.761,19.774,1.521,29.661,3.042c4.563,2.282,8.366,3.042,12.929,3.803
			c4.563-0.761,8.366-0.761,12.929-1.521c3.803,0,6.084,1.521,8.366,4.563C1388.765,125.613,1389.526,128.655,1389.526,132.458z"/>
		<path fill="#FFFFFF" d="M1518.055,318.027c-3.042,1.521-6.084,2.282-10.647,3.042c-9.126,0.761-16.732,1.521-21.295,1.521
			c-9.126,0-19.013-1.521-28.9-4.563c-9.887-3.042-19.774-5.324-29.661-6.845c-1.521,0-3.042-0.76-3.803-0.76
			c-1.521,0-2.282-0.76-3.042-2.282c-1.521-1.521-2.282-3.803-2.282-8.366c0-2.282,0-5.324,0-8.366
			c-0.76-32.703-2.282-65.406-5.324-97.348c-0.76-12.169-1.521-24.337-1.521-35.745c0-4.563,0.76-9.126,1.521-14.45
			c1.521-4.563,3.042-9.126,6.845-12.929c5.324-4.563,12.929-9.126,23.577-13.69c5.324-2.282,9.887-3.803,15.211-5.324
			c4.563-1.521,8.366-2.282,11.408-2.282c9.887,0,17.492,3.803,22.816,9.887c5.324,6.084,8.366,14.45,8.366,24.337
			c0,3.042,0,5.324,0,6.845c-0.76,1.521-2.282,1.521-5.324,1.521c-14.45,0-25.858,3.042-34.224,9.126
			c-9.126,6.084-12.929,16.732-12.929,32.703c0,5.324,0,9.887,0.76,15.211h26.619c3.803,0,8.366,1.521,13.69,3.803
			c5.324,2.282,16.732,7.605,14.45,15.211c-0.76,2.282-2.282,4.563-4.563,5.324c-6.084,3.042-15.211,2.282-22.055,2.282
			c-8.366,0-17.492,0-25.858-0.761c0.76,19.013,0.76,38.027,0.76,57.04c2.282,0.76,4.563,0.76,6.845,0.76
			c6.084,0,11.408-0.76,17.492-1.521c6.084-1.521,11.408-1.521,17.492-1.521c1.521,0,3.042,0,5.324,0
			c2.282,0.76,3.803,0.76,4.563,1.521l19.774,15.211c0.76,1.521,1.521,3.042,1.521,4.563
			C1522.618,314.225,1521.097,316.506,1518.055,318.027z"/>
		<path fill="#FFFFFF" d="M1678.527,304.338c0,6.845-16.732,12.168-22.055,12.168c-2.282,0-5.324-1.521-7.605-3.042
			c-2.282-2.282-5.324-4.563-8.366-7.605c-6.084-6.845-11.408-14.45-16.732-22.055c-5.324-8.366-10.647-15.971-15.971-22.055
			c-5.324-6.084-9.887-9.887-13.69-9.887v47.913c0,1.521-0.76,4.563-3.042,8.366c-1.521,3.803-4.563,7.605-7.605,12.168
			c-3.042,3.803-6.084,7.605-9.126,10.647c-3.042,3.042-6.084,4.563-8.366,5.324c-15.211,0-22.816-8.366-22.816-24.337
			c0-7.605,0.76-15.211,2.282-22.816c1.521-11.408,1.521-22.055,1.521-32.703c0-28.9-1.521-57.8-3.803-85.94
			c-1.521-14.45-2.282-28.14-2.282-42.59c0-22.816,20.534-39.548,41.829-39.548c14.45,0,30.421,3.042,46.392,9.887
			c7.605,3.803,13.69,8.366,19.013,13.69c4.563,6.084,6.845,12.929,6.845,22.055c0,8.366-2.282,17.492-6.845,25.098
			c-4.563,8.366-9.126,15.971-15.211,22.816c-5.324,6.845-10.647,12.929-15.211,18.253s-6.845,9.126-6.845,12.169
			c0,0.761,1.521,2.282,3.803,4.563c2.282,2.282,5.324,4.563,8.366,6.845c6.845,5.324,12.168,9.126,15.211,11.408
			c5.324,4.563,10.647,9.887,15.211,15.211c4.563,4.563,7.605,9.887,9.887,15.211s3.803,11.408,6.084,17.492
			c1.521,2.282,3.042,6.084,4.563,10.647C1677.767,298.253,1678.527,302.056,1678.527,304.338z M1623.769,138.542
			c0-4.563-1.521-7.605-3.803-9.126c-2.282-1.521-5.324-1.521-9.126-1.521c-3.042,0-6.845,0.761-10.647,2.282
			c-3.803,1.521-7.605,3.042-10.647,4.563l1.521,59.321c3.042-1.521,6.845-4.563,10.647-9.126
			c3.803-4.563,7.605-9.887,10.648-15.211C1619.206,156.034,1623.008,146.147,1623.769,138.542z"/>
		<path fill="#FFFFFF" d="M1778.917,260.227c0,6.845-2.282,13.69-7.605,20.534c-4.563,7.605-9.126,13.69-13.69,19.013
			c-3.803,4.563-9.126,11.408-16.732,19.774c-3.803,3.803-6.845,6.845-10.647,9.887c-14.45,10.647-36.505-6.084-22.055-21.295
			c3.803-3.803,7.605-8.366,12.168-12.929c5.324-4.563,9.126-9.887,12.929-15.211c3.042-4.563,5.324-9.887,5.324-15.211
			c0-4.563-2.282-9.887-6.845-16.732c-4.563-6.084-10.647-12.169-16.732-19.774c-6.084-7.605-11.408-15.211-15.971-23.576
			c-5.324-8.366-7.605-17.492-7.605-26.619c0-15.971,6.084-32.703,17.492-49.435c5.324-8.366,11.408-15.211,19.013-19.774
			c6.845-5.324,14.45-7.605,22.055-7.605c1.521,0,3.803,0.761,5.324,3.042c1.521,1.521,3.803,3.803,5.324,6.845
			c3.042,6.084,5.324,10.647,5.324,14.45c0,6.084-7.605,8.366-11.408,11.408c-9.126,7.605-14.45,20.534-17.492,31.182
			c-1.521,6.084-3.042,12.169-3.042,18.253c0,7.605,2.282,15.211,6.845,21.295c4.563,6.084,9.126,12.169,15.211,18.253
			c6.084,5.324,10.647,11.408,15.211,16.732C1776.636,246.537,1778.917,252.622,1778.917,260.227z"/>
		<g>
			<path fill="#FFFFFF" d="M557.505,243.495c-0.76,8.366-8.366,28.9-21.295,25.858c-11.408-3.042-18.253-19.013-19.013-28.14
				c-3.042-23.576,3.042-54.758,1.521-77.574c-2.282-18.253-3.042-37.266-1.521-55.519c0.76-5.324,3.042-9.126,6.845-11.408
				c3.803-2.282,8.366-3.042,12.929-3.042c4.563,0.761,15.971,2.282,18.253,6.084c1.521,3.042,2.282,7.605,2.282,12.929
				c-1.521,13.69-2.282,27.379-3.042,40.308c-0.76,10.647-0.76,21.295-0.76,31.942c0,6.845,0.76,14.45,2.282,22.055
				C557.505,213.835,558.265,236.65,557.505,243.495z M562.828,309.661c-0.76,6.084-3.042,10.647-7.605,14.45
				c-4.563,3.803-18.253,5.324-23.576,5.324c-5.324-0.76-8.366-3.803-8.366-9.126c-0.76-4.563-0.76-9.887,0-14.45
				c0.76-5.324,2.282-9.887,6.845-12.929c3.803-3.042,15.971-4.563,20.534-4.563c5.324,0.76,9.126,3.042,11.408,6.845
				C562.828,299.775,563.589,304.338,562.828,309.661z"/>
		</g>
		<g>
			<path fill="#FFFFFF" d="M57.836,185.695c0.761-7.605,0.761-30.421,9.126-33.463c15.971-4.563,30.421,18.253,31.182,28.14
				c3.042,23.576-3.042,54.758-1.521,77.574c2.282,18.253,3.042,37.266,1.521,55.519c-0.761,5.324-3.042,9.126-6.845,11.408
				c-3.803,2.282-15.971,3.042-21.295,3.042c-4.563-0.76-8.366-2.282-10.647-6.084c-1.521-3.042-2.282-7.605-2.282-12.929
				c1.521-13.69,2.282-27.379,3.042-40.308c0.761-10.647,0.761-21.295,0.761-31.942c0-6.845-0.761-14.45-2.282-22.055
				C57.836,207.75,57.836,192.54,57.836,185.695z M52.512,111.923c0.761-6.084,3.042-10.647,7.605-14.45s9.887-5.324,15.971-5.324
				c5.324,0.761,15.971,3.803,16.732,9.126c0.761,4.563,0.761,9.887,0,14.45c-0.761,5.324-2.282,9.887-6.845,12.929
				c-3.803,3.042-15.971,4.563-20.534,4.563c-5.324-0.761-9.126-3.042-11.408-6.845C52.512,121.81,51.752,117.247,52.512,111.923z"
				/>
		</g>
		<path fill="#FFFFFF" d="M933.967,117.247c0.76-4.563,0-9.126-2.282-12.169s-13.69-5.324-18.253-5.324
			c-4.563-0.761-9.126,0.761-12.929,3.042c-4.563,2.282-6.845,6.084-6.845,10.647c-1.521,17.492-0.76,34.984,1.521,52.477
			c0.76,3.803,0,8.366,0,12.169c0,3.803,0,9.126-1.521,12.929c-1.521,3.042-6.845,3.803-10.647,4.563
			c-5.324,0.761-10.647,1.521-15.971,1.521s-9.887-0.761-9.887-6.084c0-0.761,0-2.282,0-3.042c0-19.774,1.521-40.308,0-60.082
			c0-0.761,0-1.521,0-3.042c-1.521-9.126-15.211-23.576-31.182-19.013c-8.366,2.282-8.366,24.337-9.126,31.182
			c-0.76,6.084,0,71.49,0.76,79.095c1.521,7.605,2.282,14.45,2.282,20.534c0,9.887,0,20.534-0.76,29.661
			c-0.76,12.929-1.521,25.858-3.042,38.027c-0.76,4.563,0,9.126,2.282,12.168c2.282,3.042,5.324,5.324,10.647,5.324
			c4.563,0.76,16.732-0.761,21.295-3.042c4.563-2.282,6.845-6.084,6.845-10.647c1.521-17.492,0.76-34.984-1.521-52.477
			c-0.76-3.042,0-6.084,0-9.126c0-2.282,0-5.324,0.76-7.605c1.521-2.282,3.803-3.042,6.845-3.803s6.084-1.521,9.126-1.521
			c4.563-0.761,9.887-0.761,15.211,0c5.324,0.761,6.845,3.042,6.845,7.605c-0.76,6.084,0,12.169-0.76,17.492
			c0,9.126,0,18.253,0,28.14c0,1.521,0,2.282,0,3.803c0.76,9.126,7.605,23.576,19.013,26.619
			c12.929,3.042,20.534-16.732,21.295-24.337c0.76-6.084,0-78.335-0.76-86.701c-1.521-7.605-2.282-14.45-2.282-20.534
			c0-9.887,0-20.534,0.76-29.661C931.686,142.345,933.207,129.416,933.967,117.247z"/>
	</g>
</g>
</svg>
