<svg xmlns="http://www.w3.org/2000/svg" xmlns:xlink="http://www.w3.org/1999/xlink" version="1.1" x="0px" y="0px" viewBox="0 0 100 125" enable-background="new 0 0 100 100" xml:space="preserve"><polygon fill="#000000" points="67.712,41.909 69.135,43.909 69.409,43.854 69.52,42.605 69.615,41.219 69.452,40.4 69.013,40.295   68.406,40.902 67.326,41.255 "/><path fill="#000000" d="M97.05,33.128c-0.071-0.2-0.151-0.395-0.226-0.594c-0.269-0.717-0.553-1.431-0.856-2.142  c-0.136-0.32-0.275-0.636-0.418-0.952c-0.105-0.233-0.198-0.468-0.308-0.7c-0.272-0.58-0.556-1.152-0.848-1.717  c-0.029-0.057-0.061-0.111-0.09-0.167c-0.462-0.885-0.948-1.749-1.455-2.594c-0.032-0.054-0.063-0.109-0.096-0.163  c-0.544-0.9-1.115-1.775-1.708-2.629c-0.014-0.02-0.026-0.04-0.04-0.059c-3.747-5.387-8.437-9.861-13.734-13.303  c-0.03-0.02-0.06-0.039-0.09-0.058c-0.862-0.558-1.74-1.089-2.633-1.592c-0.074-0.042-0.149-0.082-0.224-0.123  c-0.873-0.486-1.759-0.948-2.658-1.38C71.578,4.911,71.488,4.872,71.4,4.83c-0.909-0.43-1.828-0.837-2.761-1.212  c-0.058-0.023-0.116-0.043-0.174-0.066c-0.95-0.377-1.91-0.727-2.881-1.045c-0.036-0.012-0.071-0.025-0.107-0.037  c-1.007-0.328-2.024-0.621-3.051-0.884c-0.034-0.009-0.066-0.021-0.101-0.029c0,0-0.001,0.001-0.001,0.002  C58.309,0.533,54.157,0,49.966,0c-0.3,0-0.602,0.019-0.903,0.024c-0.197,0.003-0.395,0.01-0.591,0.016  c-1.679,0.051-3.36,0.187-5.042,0.41c-0.249,0.033-0.497,0.064-0.745,0.101c-0.472,0.07-0.944,0.146-1.415,0.23  c-0.329,0.058-0.655,0.124-0.981,0.189c-0.593,0.118-1.186,0.245-1.777,0.385c-0.508,0.12-1.014,0.244-1.516,0.379  c-0.325,0.088-0.65,0.183-0.975,0.278c-0.518,0.151-1.032,0.311-1.543,0.478c-0.246,0.081-0.492,0.157-0.738,0.242  c-0.757,0.261-1.506,0.54-2.248,0.835C31.328,3.633,31.165,3.704,31,3.771c-0.652,0.268-1.297,0.55-1.936,0.845  c-0.108,0.049-0.217,0.091-0.325,0.142c-0.068,0.032-0.133,0.068-0.201,0.101c-0.69,0.329-1.375,0.667-2.049,1.027  c-0.13,0.069-0.255,0.144-0.384,0.214c-0.517,0.281-1.029,0.57-1.536,0.87c-0.308,0.182-0.611,0.369-0.914,0.556  c-0.302,0.188-0.603,0.378-0.9,0.572c-0.357,0.232-0.713,0.464-1.063,0.704c-0.167,0.115-0.33,0.234-0.496,0.351  c-1.39,0.978-2.719,2.019-3.984,3.117c-0.087,0.076-0.175,0.151-0.261,0.227c-0.43,0.379-0.854,0.763-1.269,1.154  c-0.051,0.048-0.101,0.098-0.152,0.146c-1.29,1.228-2.505,2.517-3.645,3.861c-0.094,0.111-0.189,0.219-0.282,0.331  c-0.312,0.375-0.615,0.754-0.916,1.137c-0.153,0.195-0.306,0.392-0.456,0.59c-0.27,0.354-0.536,0.709-0.795,1.07  c-0.18,0.25-0.354,0.505-0.53,0.759c-0.229,0.331-0.46,0.66-0.681,0.996c-0.37,0.562-0.729,1.132-1.077,1.712  c-0.147,0.245-0.284,0.495-0.426,0.743c-0.229,0.397-0.457,0.794-0.676,1.199c-0.146,0.271-0.286,0.543-0.427,0.816  c-0.203,0.392-0.402,0.787-0.596,1.186c-0.132,0.274-0.263,0.548-0.39,0.825c-0.192,0.417-0.378,0.838-0.56,1.261  C3.964,30.542,3.852,30.8,3.745,31.06c-0.04,0.097-0.083,0.191-0.123,0.288c0.006-0.007,0.013-0.015,0.02-0.022  c-1.566,3.89-2.645,7.971-3.2,12.145c0,0-0.001,0-0.002,0c-0.021,0.156-0.029,0.312-0.048,0.468C0.3,44.683,0.22,45.43,0.161,46.179  c-0.017,0.215-0.023,0.429-0.037,0.644c-0.046,0.708-0.082,1.417-0.098,2.129c-0.004,0.202-0.001,0.404-0.003,0.606  c-0.007,0.724-0.001,1.448,0.023,2.174c0.006,0.184,0.017,0.367,0.025,0.551c0.033,0.742,0.082,1.483,0.149,2.227  c0.015,0.166,0.032,0.331,0.049,0.497c0.075,0.751,0.168,1.501,0.278,2.251c0.023,0.159,0.047,0.319,0.072,0.479  c0.116,0.74,0.25,1.479,0.4,2.217c0.035,0.17,0.068,0.34,0.104,0.509c0.151,0.705,0.321,1.409,0.504,2.111  c0.052,0.2,0.101,0.4,0.156,0.599c0.176,0.644,0.371,1.284,0.574,1.924c0.08,0.253,0.156,0.508,0.241,0.76  c0.188,0.56,0.394,1.115,0.603,1.672c0.12,0.319,0.234,0.641,0.36,0.957c0.191,0.479,0.4,0.954,0.607,1.43  c0.163,0.375,0.319,0.752,0.491,1.122c0.034,0.074,0.063,0.15,0.098,0.225c0.306,0.651,0.627,1.29,0.958,1.921  c0.069,0.133,0.143,0.264,0.213,0.396c0.366,0.685,0.745,1.357,1.138,2.019c0.045,0.075,0.088,0.152,0.133,0.228  c0.47,0.78,0.959,1.543,1.465,2.29c0.001,0.001,0.001,0.002,0.002,0.003C18.104,92.023,33.772,100,50.034,100  c7.122,0,14.355-1.528,21.227-4.758C94.799,84.181,105.684,57.117,97.05,33.128z M70.41,93.432C63.959,96.463,57.104,98,50.034,98  c-14.731,0-28.53-6.851-37.528-18.081c-0.128-0.337-0.256-0.673-0.384-1.01c0.551,0.066,1.103,0.131,1.653,0.197  c0.302-0.093,0.604-0.184,0.905-0.276c0.105-0.655,0.21-1.312,0.315-1.969c-0.079-0.786-0.157-1.574-0.236-2.361  c-0.145-0.38-0.289-0.761-0.434-1.142c0.197-0.131,0.395-0.262,0.591-0.394c0.092-0.368,0.184-0.735,0.275-1.103  c0.289-0.196,0.578-0.394,0.866-0.59c0.04-0.669,0.079-1.339,0.118-2.008c-0.171-0.381-0.341-0.762-0.512-1.143  c-0.38-0.209-0.761-0.419-1.142-0.629c-0.381-0.656-0.761-1.313-1.142-1.969c-0.512-0.288-1.023-0.577-1.535-0.866  c-0.604-0.367-1.207-0.734-1.811-1.103c-0.342-0.616-0.683-1.233-1.024-1.851c-0.498-0.629-0.997-1.26-1.495-1.889  c0-0.604,0-1.207,0-1.812c-0.171-0.551-0.342-1.103-0.513-1.653c-0.472-0.722-0.944-1.443-1.417-2.165  c-0.341-0.854-0.683-1.706-1.023-2.559c-0.131-0.866-0.263-1.731-0.394-2.599c-0.145-0.563-0.289-1.128-0.433-1.692  c-0.455-0.97-0.91-1.94-1.365-2.911c0.214-1.799,0.532-3.581,0.943-5.338l0.549,1.555l0.801,1.188l0.619,0.336l-0.697-1.524  L4.07,38.836l-0.025-1.705l-0.067-0.564c1.231-4.218,3.031-8.263,5.365-12.006c0.386-0.287,0.772-0.573,1.158-0.86  c0.482-0.447,0.965-0.895,1.446-1.343c0.715-0.275,1.43-0.551,2.145-0.826c0.396-0.164,0.792-0.327,1.188-0.491  c0.043,0.275,0.086,0.552,0.129,0.827c0.396,0.008,0.792,0.017,1.188,0.025c0.568-0.189,1.137-0.379,1.705-0.568  c-0.525-0.189-1.051-0.379-1.575-0.567c0.344-0.311,0.688-0.62,1.032-0.931c0.276-0.284,0.552-0.568,0.827-0.853  c-0.121-0.301-0.241-0.603-0.361-0.903c0.326-0.035,0.654-0.069,0.981-0.104c0.37,0.345,0.74,0.688,1.11,1.033  c0.387-0.009,0.774-0.018,1.162-0.026c0.354-0.017,0.706-0.034,1.06-0.051c0.258-0.457,0.516-0.913,0.774-1.369  c0.181-0.646,0.361-1.292,0.542-1.938c0.844-1.033,1.688-2.066,2.532-3.1c-0.595,0.155-1.188,0.311-1.782,0.465  c0.438-0.551,0.878-1.102,1.316-1.652c0.302-0.482,0.603-0.965,0.904-1.447c-0.499,0.225-0.999,0.448-1.498,0.672  c-0.723,0.551-1.446,1.103-2.169,1.653c-0.561,0.258-1.12,0.517-1.68,0.774c-0.783,0.311-1.566,0.62-2.351,0.931  c0.732-0.629,1.464-1.258,2.195-1.886c0.188-0.302,0.374-0.604,0.561-0.905c1.887-1.364,3.893-2.605,6.016-3.706  c0.339,0.039,0.678,0.078,1.018,0.117c0.044,0.361,0.086,0.723,0.13,1.085c-0.275,0.473-0.552,0.946-0.827,1.42  c-0.224,0.396-0.447,0.792-0.671,1.188c0.628,0.009,1.257,0.018,1.885,0.025c0.672-0.353,1.343-0.706,2.015-1.059  c0.775-0.361,1.55-0.724,2.325-1.085c0.688-0.302,1.377-0.603,2.066-0.904c-0.267-0.155-0.534-0.31-0.801-0.465  c-0.026-0.267-0.052-0.533-0.077-0.801c0.292-0.335,0.585-0.671,0.878-1.007c0.154-0.336,0.31-0.672,0.465-1.008  c0.232,0.207,0.465,0.413,0.697,0.62c0.111-0.146,0.224-0.293,0.336-0.439c0.267,0.086,0.533,0.173,0.801,0.259  c0.474,0.043,0.946,0.086,1.42,0.129c-0.318,0.422-0.637,0.844-0.955,1.266c-0.181,0.207-0.361,0.413-0.543,0.62  c-0.361,0.431-0.723,0.861-1.085,1.291c-0.576,0.5-1.153,0.999-1.73,1.498c-0.378,0.121-0.757,0.241-1.136,0.362  c-0.396,0.404-0.792,0.809-1.188,1.214c-0.396,0.206-0.792,0.413-1.188,0.62c-0.413,0.413-0.826,0.826-1.239,1.239  c-0.198,0.327-0.396,0.654-0.595,0.981c0.104,0.104,0.207,0.207,0.311,0.311c-0.077,0.249-0.155,0.499-0.232,0.748  c0.255,0.131,0.51,0.262,0.765,0.392c0.267-0.224,0.534-0.447,0.801-0.671c0.37-0.232,0.74-0.465,1.11-0.697  c0.438-0.268,0.879-0.534,1.317-0.801c0.465-0.052,0.93-0.104,1.395-0.155c0.561-0.189,1.119-0.379,1.679-0.568  c0.284-0.181,0.568-0.361,0.854-0.542c0.283,0.068,0.567,0.138,0.852,0.206c0.715-0.111,1.43-0.224,2.144-0.336  c0.284-0.197,0.568-0.396,0.853-0.594c0.345-0.353,0.689-0.706,1.033-1.059c0.499-0.465,0.999-0.93,1.498-1.395  c0.284-0.311,0.568-0.62,0.853-0.931c0.379-0.353,0.758-0.706,1.137-1.059c0.301-0.12,0.603-0.241,0.903-0.361  C46.979,6.7,46.789,6.331,46.6,5.96c0.387,0.198,0.774,0.396,1.162,0.595c0.697,0.111,1.395,0.224,2.092,0.335  c0.672-0.017,1.343-0.034,2.015-0.052c0.844-0.146,1.688-0.292,2.531-0.438c0.215-0.275,0.431-0.551,0.646-0.826  c0.474,0.12,0.947,0.24,1.421,0.361c0.224-0.018,0.447-0.034,0.672-0.052c-0.044-0.353-0.087-0.706-0.13-1.059  c0.275-0.181,0.551-0.362,0.827-0.543c0.404-0.146,0.809-0.293,1.214-0.438c0.473,0.017,0.947,0.034,1.421,0.051  c0.023-0.208,0.049-0.417,0.073-0.626c-0.038-0.033-0.077-0.066-0.115-0.099c0.914,0.206,1.82,0.44,2.718,0.698  c-0.035,0.146-0.071,0.293-0.106,0.44c-0.237-0.14-0.475-0.279-0.712-0.419c-0.46,0.098-0.921,0.195-1.381,0.293  c0.126,0.349,0.251,0.697,0.377,1.046c0.565,0.579,1.13,1.158,1.694,1.737c-0.021,0.48-0.041,0.962-0.063,1.443  c0.397,0.313,0.795,0.628,1.192,0.941c-0.293,0.481-0.586,0.962-0.879,1.443c0.188,0.035,0.377,0.07,0.565,0.104  c0.174,0.202,0.349,0.404,0.522,0.607c-0.502,0.146-1.004,0.292-1.506,0.438c-0.175,0.426-0.349,0.852-0.523,1.276  c-0.174,0.133-0.349,0.266-0.522,0.398c-0.265,0.181-0.53,0.362-0.795,0.543c-0.21-0.16-0.419-0.32-0.628-0.48  c-0.168-0.133-0.335-0.266-0.503-0.398c-0.292-0.09-0.585-0.181-0.878-0.271c-0.439-0.035-0.879-0.069-1.318-0.104  c-0.23-0.035-0.46-0.069-0.69-0.104c-0.133-0.021-0.265-0.042-0.397-0.063c-0.153-0.14-0.307-0.279-0.46-0.419  c-0.266,0-0.53,0-0.795,0c-0.293,0.056-0.586,0.111-0.879,0.167c-0.32,0.084-0.642,0.168-0.962,0.252  c-0.224,0.278-0.446,0.558-0.67,0.836c-0.14,0.314-0.279,0.628-0.418,0.941c-0.175,0.237-0.35,0.475-0.523,0.712  c-0.272,0.286-0.544,0.572-0.816,0.857c-0.258,0.168-0.516,0.335-0.774,0.503c-0.279,0.327-0.558,0.655-0.837,0.982  c-0.301,0.272-0.6,0.544-0.9,0.816c-0.048,0.265-0.098,0.53-0.146,0.795c0.021,0.209,0.041,0.418,0.063,0.628  c0.056,0.202,0.111,0.404,0.167,0.606c0.098,0.167,0.195,0.335,0.293,0.502c0.146,0.077,0.293,0.153,0.439,0.23  c0.251-0.119,0.502-0.237,0.753-0.355c0.014-0.175,0.028-0.349,0.042-0.523c0.335-0.076,0.67-0.153,1.004-0.229  c0.015,0.125,0.028,0.25,0.042,0.376c0.154,0.279,0.308,0.558,0.461,0.837c0.118,0.195,0.236,0.391,0.355,0.586  c-0.021,0.118-0.042,0.237-0.063,0.355c0.014,0.175,0.027,0.349,0.041,0.523c0.244,0.035,0.488,0.069,0.732,0.104  c0.146-0.126,0.293-0.251,0.439-0.377c0.251-0.174,0.502-0.349,0.753-0.523c-0.076-0.223-0.153-0.446-0.229-0.669  c-0.028-0.224-0.056-0.446-0.084-0.67c0.369-0.153,0.739-0.307,1.109-0.46c-0.133-0.202-0.266-0.404-0.398-0.606  c-0.251-0.146-0.502-0.293-0.753-0.439c0.015-0.446,0.028-0.893,0.042-1.339c0.3-0.244,0.6-0.488,0.899-0.732  c0.091-0.271,0.182-0.544,0.271-0.816c0.133-0.216,0.266-0.432,0.398-0.648c0.32,0.007,0.642,0.015,0.962,0.021  c0.049,0.237,0.098,0.474,0.146,0.711c-0.271,0.216-0.544,0.433-0.816,0.648c-0.083,0.266-0.167,0.53-0.251,0.795  c0.141,0.335,0.279,0.67,0.419,1.005c0.133,0.195,0.265,0.391,0.397,0.586c0.377-0.021,0.754-0.042,1.13-0.063  c0.188-0.195,0.376-0.391,0.564-0.585c0.426,0.097,0.852,0.194,1.276,0.292c-0.007,0.105-0.014,0.21-0.021,0.314  c-0.167,0.091-0.335,0.181-0.502,0.271c-0.349,0.126-0.697,0.251-1.047,0.377c-0.251,0.063-0.502,0.126-0.753,0.188  c-0.125,0.223-0.251,0.446-0.376,0.669c0.09,0.104,0.181,0.209,0.271,0.313c-0.16,0.057-0.32,0.112-0.481,0.168  c0.05,0.328,0.098,0.655,0.146,0.983c0.126,0.209,0.251,0.418,0.377,0.628c-0.293,0.195-0.586,0.391-0.879,0.586  c-0.175,0.041-0.349,0.083-0.523,0.125c-0.11-0.098-0.223-0.195-0.334-0.293c-0.084,0.056-0.167,0.111-0.251,0.168  c-0.175,0.118-0.349,0.236-0.523,0.355c-0.188,0.09-0.376,0.182-0.564,0.271c-0.069,0.153-0.14,0.307-0.21,0.461  c-0.16-0.141-0.32-0.279-0.48-0.419c-0.104-0.167-0.209-0.335-0.314-0.502c-0.125,0.125-0.251,0.251-0.376,0.377  c-0.342-0.028-0.684-0.057-1.025-0.084c-0.118-0.188-0.238-0.377-0.356-0.565c0.069-0.229,0.14-0.46,0.209-0.69  c0.091-0.202,0.182-0.404,0.272-0.606c-0.147-0.216-0.293-0.433-0.44-0.648c-0.161,0.14-0.321,0.279-0.481,0.418  c-0.167,0.188-0.335,0.377-0.502,0.565c0.104,0.355,0.209,0.711,0.313,1.067c0.014,0.243,0.028,0.487,0.042,0.732  c-0.209,0.076-0.419,0.153-0.628,0.229c-0.265,0-0.529,0-0.794,0c-0.161,0.111-0.321,0.224-0.482,0.334  c-0.14,0.23-0.278,0.461-0.418,0.691c-0.188,0.16-0.377,0.32-0.564,0.481c-0.328,0.118-0.656,0.237-0.983,0.355  c-0.021,0.167-0.043,0.334-0.063,0.502c-0.244,0.139-0.488,0.278-0.731,0.418c-0.021,0.098-0.042,0.196-0.063,0.293  c-0.355-0.042-0.711-0.083-1.066-0.125c-0.042,0.16-0.084,0.32-0.126,0.48c-0.133,0.05-0.265,0.099-0.397,0.146  c-0.266-0.097-0.53-0.195-0.795-0.292c-0.23,0.118-0.461,0.237-0.69,0.355c0.104,0.118,0.209,0.237,0.313,0.355  c0.356,0.132,0.712,0.265,1.067,0.397c0.049,0.216,0.098,0.432,0.146,0.648c0.126,0.125,0.251,0.252,0.377,0.377  c-0.035,0.146-0.07,0.292-0.105,0.438c-0.063,0.412-0.125,0.823-0.188,1.235c-0.146,0.167-0.293,0.335-0.439,0.502  c-0.37,0.014-0.739,0.028-1.109,0.042c-0.564-0.112-1.13-0.224-1.694-0.336c-0.342,0.035-0.684,0.07-1.025,0.105  c-0.195,0.251-0.391,0.502-0.586,0.754c-0.271,0.355-0.544,0.711-0.815,1.066c0.035,0.307,0.069,0.613,0.104,0.92  c-0.077,0.272-0.153,0.544-0.23,0.816c0.091,0.292,0.182,0.586,0.272,0.879c0.16,0.16,0.32,0.32,0.48,0.48  c0.3,0.077,0.601,0.153,0.899,0.23c0.008,0.251,0.015,0.502,0.021,0.754c0.126,0.076,0.251,0.152,0.377,0.229  c0.258-0.118,0.516-0.236,0.773-0.355c0.572-0.007,1.144-0.013,1.716-0.02c0.133-0.084,0.265-0.168,0.397-0.252  c0.23-0.16,0.46-0.32,0.69-0.48c0.133-0.141,0.266-0.279,0.397-0.419c-0.098-0.259-0.194-0.516-0.292-0.774  c0.048-0.258,0.098-0.516,0.146-0.773c0.251-0.286,0.502-0.572,0.754-0.858c0.334-0.111,0.669-0.223,1.004-0.335  c0.174-0.265,0.349-0.53,0.522-0.794c0.035-0.182,0.07-0.363,0.104-0.544c0.286-0.07,0.572-0.14,0.858-0.21  c0.286,0.091,0.571,0.182,0.857,0.272c0.464-0.176,0.927-0.351,1.391-0.525c0.339-0.102,0.678-0.202,1.017-0.305  c0.181,0.079,0.361,0.158,0.542,0.237c0.079,0.187,0.158,0.373,0.237,0.56c0.227,0.236,0.452,0.474,0.679,0.712  c0.202,0.197,0.406,0.396,0.609,0.593c0.306,0.13,0.61,0.26,0.915,0.39c0.254,0.135,0.509,0.271,0.763,0.407  c0.187,0.146,0.373,0.293,0.56,0.439c0.118,0.198,0.236,0.396,0.355,0.594c-0.017,0.175-0.034,0.35-0.051,0.525  c-0.063,0.125-0.124,0.249-0.187,0.373c0.074,0.118,0.146,0.237,0.221,0.355c0.102-0.102,0.203-0.203,0.305-0.305  c0.118-0.164,0.237-0.327,0.356-0.491c0.051-0.108,0.102-0.215,0.152-0.323c-0.063-0.106-0.125-0.214-0.187-0.321  c-0.096-0.096-0.192-0.192-0.288-0.288c0.057-0.085,0.113-0.169,0.169-0.254c0.046-0.067,0.091-0.136,0.136-0.204  c0.158,0.103,0.316,0.204,0.475,0.306c0.068,0.096,0.136,0.192,0.203,0.288c0.091-0.068,0.181-0.136,0.271-0.203  c-0.164-0.17-0.327-0.339-0.491-0.509c-0.203-0.141-0.407-0.282-0.61-0.424c-0.203-0.152-0.407-0.305-0.61-0.457  c-0.106,0.006-0.215,0.011-0.321,0.017c-0.227-0.068-0.452-0.135-0.678-0.203c-0.142-0.181-0.283-0.361-0.424-0.543  c-0.125-0.237-0.249-0.474-0.373-0.711c-0.181-0.085-0.361-0.17-0.542-0.255c-0.107-0.191-0.215-0.384-0.322-0.575  c0.033-0.074,0.067-0.147,0.102-0.221c-0.057-0.112-0.113-0.227-0.169-0.339c0.067-0.085,0.135-0.17,0.203-0.255  c0.192-0.045,0.384-0.09,0.575-0.135c0.159,0.112,0.317,0.226,0.476,0.339c0.124,0.163,0.248,0.327,0.373,0.491  c0.135,0.175,0.271,0.35,0.406,0.524c0.152,0.125,0.305,0.249,0.457,0.373c0.181,0.063,0.361,0.125,0.543,0.187  c0.096,0.119,0.191,0.238,0.288,0.356c0.316,0.073,0.633,0.146,0.948,0.22c0.17,0.25,0.339,0.497,0.509,0.746  c-0.057,0.204-0.113,0.407-0.17,0.609c0.153,0.159,0.306,0.317,0.458,0.476c0.231,0.175,0.463,0.351,0.694,0.525  c0.306,0.045,0.61,0.09,0.915,0.135c0.108,0.198,0.215,0.396,0.322,0.594c0.413,0.181,0.825,0.361,1.237,0.542  c0.073-0.163,0.147-0.327,0.221-0.492c-0.255-0.175-0.509-0.35-0.763-0.524c-0.102-0.176-0.204-0.351-0.306-0.525  c-0.067-0.164-0.135-0.328-0.203-0.491c0.187-0.215,0.373-0.429,0.56-0.644c0.266-0.023,0.53-0.046,0.796-0.068  c0.238,0,0.475,0,0.712,0c0.248-0.102,0.497-0.204,0.746-0.305c0.108-0.114,0.217-0.227,0.325-0.339  c-0.227-0.454-0.454-0.907-0.681-1.362c0.373-0.161,0.745-0.323,1.118-0.485c0.485-0.356,0.972-0.713,1.458-1.069  c0.356,0.033,0.713,0.065,1.069,0.098c0.292-0.227,0.583-0.454,0.875-0.681c0.437,0.032,0.874,0.064,1.312,0.098  c0.453,0.211,0.907,0.421,1.361,0.631c0.34,0.211,0.681,0.422,1.021,0.633c0,0.291,0,0.582,0,0.875  c-0.275,0.112-0.551,0.227-0.826,0.34c-0.373,0.08-0.746,0.162-1.118,0.243c-0.389-0.146-0.777-0.292-1.166-0.438  c-0.454-0.033-0.907-0.065-1.361-0.097c-0.275,0.242-0.551,0.485-0.826,0.728c-0.323,0.098-0.648,0.194-0.972,0.293  c-0.341,0.178-0.681,0.355-1.021,0.534c-0.389,0.178-0.777,0.356-1.166,0.534c0.032,0.324,0.064,0.648,0.097,0.972  c0.341,0.325,0.681,0.648,1.021,0.973c0.356,0.422,0.713,0.842,1.069,1.264c0.308-0.081,0.615-0.162,0.924-0.243  c0.112-0.194,0.227-0.389,0.34-0.584c0.211,0.163,0.421,0.325,0.632,0.487c0.438-0.065,0.875-0.131,1.312-0.194  c0.146-0.195,0.292-0.39,0.438-0.584c0.454,0.032,0.907,0.065,1.361,0.098c-0.039,0.254-0.077,0.508-0.115,0.762  c-0.015,0.67-0.028,1.339-0.042,2.009c0.056,0.46,0.111,0.92,0.167,1.38c0.146,0.035,0.293,0.07,0.439,0.105  c0.111,0.418,0.224,0.837,0.335,1.256c-0.063,0.25-0.126,0.502-0.188,0.752c0.035,0.371,0.07,0.742,0.105,1.113  c0.162,0.113,0.324,0.227,0.486,0.34c0.34,0.405,0.68,0.811,1.021,1.216c0.291,0.421,0.583,0.842,0.874,1.263  c0.211,0.13,0.422,0.26,0.632,0.389c0.244,0.503,0.486,1.006,0.729,1.508c0.243,0.356,0.486,0.713,0.729,1.068  c0.323,0.13,0.647,0.259,0.972,0.39c0.179,0.323,0.356,0.647,0.534,0.972c0.373,0.389,0.746,0.777,1.118,1.167  c0.489,1.191,0.978,2.383,1.467,3.576c0.843-0.616,1.685-1.231,2.527-1.848c0.681-0.647,1.36-1.296,2.041-1.943  c0.227-0.228,0.453-0.454,0.681-0.681c0.032-0.34,0.064-0.68,0.097-1.021c0.309-0.291,0.615-0.582,0.924-0.874  c0.211-0.195,0.421-0.39,0.632-0.583c0.081-0.389,0.162-0.778,0.243-1.167c0.194-0.162,0.389-0.324,0.583-0.485  c-0.113-0.341-0.227-0.681-0.341-1.021c0.163-0.405,0.324-0.811,0.486-1.216c0.065-0.34,0.13-0.681,0.194-1.021  c-0.34-0.243-0.681-0.486-1.021-0.729c-0.259,0.049-0.519,0.099-0.777,0.146c-0.211-0.146-0.421-0.292-0.632-0.438  c-0.211-0.485-0.421-0.973-0.632-1.458c-0.146,0.485-0.292,0.973-0.438,1.458c-0.162,0.308-0.324,0.615-0.486,0.924  c-0.275,0.146-0.551,0.291-0.825,0.437c-0.163-0.064-0.325-0.129-0.486-0.194c-0.017-0.211-0.033-0.421-0.049-0.632  c-0.081-0.275-0.162-0.55-0.243-0.826c-0.113,0.081-0.227,0.163-0.34,0.243c0,0.228,0,0.454,0,0.681  c-0.146-0.179-0.292-0.356-0.438-0.535c-0.227-0.274-0.454-0.551-0.681-0.825c-0.405-0.373-0.81-0.746-1.215-1.118  c-0.064-0.324-0.13-0.648-0.194-0.972c0.291-0.163,0.583-0.325,0.875-0.487c0.356,0.356,0.713,0.713,1.069,1.069  c0.146,0.211,0.291,0.422,0.437,0.633c0.195-0.017,0.39-0.033,0.583-0.049c0.292,0.162,0.584,0.323,0.875,0.485  c0.194,0,0.389,0,0.583,0c0.26-0.323,0.519-0.647,0.778-0.972c0.161-0.016,0.324-0.032,0.486-0.049  c0.161,0.341,0.323,0.681,0.485,1.021c0.648-0.194,1.296-0.388,1.944-0.582c0.453-0.244,0.907-0.487,1.36-0.729  c0.309-0.194,0.616-0.389,0.924-0.583c0.033-0.017,0.064-0.033,0.098-0.05c0.323,0.309,0.648,0.616,0.972,0.924  c0.34,0.113,0.681,0.228,1.021,0.341c0.242-0.195,0.485-0.39,0.728-0.584c0.324,0.341,0.648,0.682,0.973,1.021  c0.389,0.907,0.777,1.814,1.166,2.721c0.356,0.665,0.713,1.329,1.069,1.993c0.405,0.713,0.81,1.426,1.215,2.139  c0.227,0.696,0.454,1.393,0.681,2.09c0.098-0.712,0.194-1.425,0.292-2.138c-0.033-1.135-0.064-2.27-0.098-3.402  c-0.243-0.471-0.486-0.94-0.729-1.409c0.113-0.778,0.227-1.557,0.34-2.333c-0.13-0.957-0.26-1.913-0.389-2.868  c-0.049-0.534-0.098-1.069-0.146-1.604c0.089-0.266,0.178-0.532,0.266-0.798C102.902,58.08,92.412,83.092,70.41,93.432z"/><polygon fill="#000000" points="42.337,15.775 41.924,14.768 41.202,14.717 40.323,14.613 39.368,14.483 38.903,14.871   39.161,15.336 38.825,15.879 39.264,16.24 40.297,16.369 41.253,16.111 "/><polygon fill="#000000" points="40.543,25.364 41.476,25.127 42.069,24.957 42.493,24.381 42.712,23.737 43.018,23.382   42.611,22.618 41.9,22.5 41.493,23.195 41.052,23.364 40.967,23.975 40.696,24.179 40.645,24.482 40.34,24.721 40.273,25.246 "/><polygon fill="#000000" points="42.442,26.687 43.051,26.432 43.39,26.533 44,26.229 45.035,26.229 46.102,26.127 46.407,25.855   46.204,25.499 46.661,25.076 46.136,24.652 45.747,24.076 45.492,23.482 45.153,23.094 45.12,22.703 44.679,22.313 44.747,21.856   45.187,21.534 45.272,20.924 45.238,20.162 43.255,20.314 43.018,21.246 43.154,22.043 43.357,22.788 43.916,23.229 44.272,23.907   43.781,24.279 43.441,24.279 43.475,24.957 43.085,25.144 42.917,25.433 43.205,25.805 "/><polygon fill="#000000" points="77.013,83.729 78.408,83.108 79.156,81.921 80.371,79.777 81.3,77.969 82.256,76.187 82.153,73.682   81.455,74.947 81.223,74.947 80.913,75.516 80.112,76.497 79.183,77.271 78.305,77.762 78.149,78.33 77.813,78.744 77.969,79.648   77.788,80.346 77.297,80.836 76.755,81.585 76.342,82.18 76.574,82.567 76.315,83.187 "/><polygon fill="#000000" points="58.23,91.763 57.045,91.022 57.192,90.429 56.229,88.577 55.638,88.503 54.896,85.393   52.896,82.355 53.119,80.355 54.822,78.207 54.082,76.577 54.378,75.466 53.192,73.614 50.673,70.28 51.563,67.021 50.599,65.54   48.081,65.613 47.266,65.244 46.229,63.762 41.859,64.576 40.896,65.095 39.488,64.503 36.006,65.095 32.525,61.91 30.081,60.28   28.081,59.54 29.339,55.465 30.525,52.65 30.154,49.761 30.969,47.835 32.155,46.946 32.376,45.762 33.932,44.354 36.673,43.021   37.488,40.279 38.97,39.391 40.155,38.28 41.192,38.872 42.452,39.169 44.006,38.501 45.785,37.762 48.377,37.762 50.155,38.058   51.118,37.539 52.229,37.835 51.488,39.983 52.155,40.576 54.896,41.613 56.008,42.428 58.008,43.095 58.896,42.576 58.675,41.613   59.193,40.872 61.934,41.465 64.971,41.761 66.23,41.613 67.712,41.909 70.379,46.428 71.342,47.91 72.23,48.502 73.193,51.095   74.305,51.909 75.342,53.613 76.749,54.725 78.453,56.28 79.045,57.095 79.786,56.429 80.823,56.28 81.49,55.465 83.268,54.205   83.268,57.169 81.712,61.317 79.045,65.244 76.082,69.021 75.416,71.539 75.859,74.429 76.008,77.836 74.082,79.54 72.156,80.726   70.971,81.91 71.268,83.763 70.748,84.726 68.526,85.836 68.23,87.171 66.749,88.355 64.23,90.429 61.934,91.54 59.638,92.504 "/><polyline fill="#000000" points="54.969,36.578 54.078,36.906 53.344,37.016 53.25,37.406 54.297,37.781 54.844,37.969   55.234,37.539 55.051,37.125 "/><polyline fill="#000000" points="65.188,38.516 65.813,38.297 66.391,37.969 67.078,37.406 67.078,37.641 66.875,37.891   66.781,38.188 66.906,38.328 67.078,38.609 66.859,38.797 66.516,38.953 66.133,39.203 65.188,39.203 64.969,38.953 "/><polyline fill="#000000" points="49.895,34.017 49.706,34.308 49.8,34.599 50.1,34.839 50.1,34.616 50.186,34.205 "/><text x="0" y="115" fill="#000000" font-size="5px" font-weight="bold" font-family="'Helvetica Neue', Helvetica, Arial-Unicode, Arial, Sans-serif">Created by Martin Vanco</text><text x="0" y="120" fill="#000000" font-size="5px" font-weight="bold" font-family="'Helvetica Neue', Helvetica, Arial-Unicode, Arial, Sans-serif">from the Noun Project</text></svg>